<svg xmlns="http://www.w3.org/2000/svg" viewBox="0 0 64 80" x="0px" y="0px"><title>donation, charity, humanity</title><g><path d="M35.473,13.07v-2.5a1,1,0,0,1,2,0v2.5a1,1,0,0,1-2,0Zm5.587,2.816a.991.991,0,0,0,.674-.262l1.987-1.816a1,1,0,0,0-1.35-1.476l-1.986,1.816a1,1,0,0,0,.675,1.738Zm.986,3.347a1,1,0,0,0,1,1h2.132a1,1,0,0,0,0-2H43.046A1,1,0,0,0,42.046,19.233ZM56.605,48.341V55.4a1,1,0,0,1-2,0v-6.06H34.934a.883.883,0,0,1-.089,0H15.083V55.4a1,1,0,1,1-2,0V48.341c0-.013.008-.024.008-.038a.986.986,0,0,1,.07-.343c.005-.014.015-.024.021-.037a.978.978,0,0,1,.114-.2l6.383-8.161a1,1,0,0,1,.788-.383H30.933a11.324,11.324,0,0,1-3.671-6.5,24.425,24.425,0,0,0-4.4-1.151c-2.738-.442-3.947-2.495-5.014-4.306-.328-.557-.65-1.089-1-1.582l-.678.893a1,1,0,0,1-1.348.23L7.843,22.148a1,1,0,0,1,1.1-1.668l6.193,4.095,5.91-7.788L11.17,9.4a1,1,0,1,1,1.2-1.6l10.686,7.987a1,1,0,0,1,.2,1.4l-.421.555a76.389,76.389,0,0,1,9.641,2.4l.575.208c3.194,1.15,6.22,2.251,6.908,5.868a7.832,7.832,0,0,1,4.61-1.468,6.61,6.61,0,0,1,6.451,6.89c0,1.725-.632,4.5-3.733,7.53h1.943a1,1,0,0,1,.788.385l6.38,8.16a1,1,0,0,1,.122.212c0,.008.009.015.013.023a1,1,0,0,1,.069.341C56.6,48.313,56.605,48.326,56.605,48.341ZM23.177,29.55a26.72,26.72,0,0,1,5.351,1.468l.018.007a30.589,30.589,0,0,1,3.919,1.844.632.632,0,0,0,.653-1.081c-2.355-1.469-6-3.259-6.04-3.276a1,1,0,0,1,.879-1.8c.041.02.335.165.785.391a6.157,6.157,0,0,1,4.9-2.349,7.806,7.806,0,0,1,4.143,1.166c-.678-1.859-2.486-2.628-5.419-3.684l-.582-.21a82.783,82.783,0,0,0-10.307-2.5L18.1,23.978A18.266,18.266,0,0,1,19.567,26.2C20.572,27.91,21.367,29.258,23.177,29.55Zm6.349,4.066c.754,2.269,3.061,5.478,9.578,8.689,6.306-3.11,9.911-6.979,9.911-10.658a4.582,4.582,0,0,0-4.451-4.89,5.857,5.857,0,0,0-4.64,2.223,1.025,1.025,0,0,1-.822.425,1,1,0,0,1-.819-.427,5.875,5.875,0,0,0-4.638-2.221,4.2,4.2,0,0,0-3.073,1.295c1.157.611,2.5,1.35,3.605,2.039a2.632,2.632,0,0,1-2.69,4.523C30.838,34.25,30.183,33.922,29.526,33.616ZM53.554,47.337l-4.817-6.16H44.89a30.123,30.123,0,0,1-2.712,1.746h1.433a1,1,0,0,1,0,2H26.078a1,1,0,0,1,0-2H36.02a30.127,30.127,0,0,1-2.747-1.785.958.958,0,0,1-.213.043H20.954l-4.819,6.16H34.756c.029,0,.058,0,.089,0ZM46.319,51.16a1.047,1.047,0,0,0-1.42,0,.962.962,0,0,0-.21.33,1.015,1.015,0,0,0-.08.38,1,1,0,1,0,2,0,.838.838,0,0,0-.079-.38A.936.936,0,0,0,46.319,51.16Zm3.111-.12a.568.568,0,0,0-.17-.09.693.693,0,0,0-.191-.06,1,1,0,1,0-.189,1.98,1.213,1.213,0,0,0,.189-.02.693.693,0,0,0,.191-.06.568.568,0,0,0,.17-.09l.15-.12a1.017,1.017,0,0,0,.3-.71,1,1,0,0,0-.3-.71A1.712,1.712,0,0,0,49.43,51.04Zm3.42.12a1.047,1.047,0,0,0-1.42,0,.933.933,0,0,0-.21.33,1,1,0,0,0-.08.38,1,1,0,1,0,2,0,1.015,1.015,0,0,0-.08-.38A.948.948,0,0,0,52.85,51.16Z"/></g><text x="0" y="79" fill="#000000" font-size="5px" font-weight="bold" font-family="'Helvetica Neue', Helvetica, Arial-Unicode, Arial, Sans-serif">Created by The Icon Z</text><text x="0" y="84" fill="#000000" font-size="5px" font-weight="bold" font-family="'Helvetica Neue', Helvetica, Arial-Unicode, Arial, Sans-serif">from the Noun Project</text></svg>