<svg width="96" height="96" viewBox="0 0 96 96" fill="none" xmlns="http://www.w3.org/2000/svg">
<path d="M96 34.6667L48 76.7999L0 34.6667L0.255992 34.4853L48 0L95.744 34.4853L96 34.6667Z" fill="#757575"/>
<path d="M12.8 6.75562H83.2V69.1556H12.8V6.75562Z" fill="#F6F6F6"/>
<path d="M96 34.6667V96.0001H0V34.6667L40.1493 63.6587L48 69.3334L55.8506 63.6587L96 34.6667Z" fill="#AFAFAF"/>
<path d="M55.8507 63.6587H40.1493L0 96H96L55.8507 63.6587Z" fill="#BFBFBF"/>
<path d="M17.4667 13.6785H39.6947V30.547H17.4667V13.6785Z" fill="#FF485C"/>
<path d="M30.1454 26H27.7226V21.0825L26.3673 22.4258L25 20.9985L28.0585 18H30.1454V26Z" fill="white"/>
<path d="M43.5333 13.6785H77.9333V15.06H43.5333V13.6785Z" fill="#E2E2E2"/>
<path d="M43.5333 21.4219H77.9333V22.8034H43.5333V21.4219Z" fill="#E2E2E2"/>
<path d="M43.5333 29.1655H77.9333V30.5471H43.5333V29.1655Z" fill="#E2E2E2"/>
<path d="M18.0667 36.9089H77.9333V38.2905H18.0667V36.9089Z" fill="#E2E2E2"/>
<path d="M18.0667 44.6526H77.9333V46.0342H18.0667V44.6526Z" fill="#E2E2E2"/>
</svg>
