<svg xmlns="http://www.w3.org/2000/svg" xmlns:xlink="http://www.w3.org/1999/xlink" viewBox="0 0 24 30" version="1.1" x="0px" y="0px"><title>icons / location</title><desc>Created with Sketch.</desc><g stroke="none" stroke-width="1" fill="none" fill-rule="evenodd"><path d="M12,2 C16.418278,2 20,5.581722 20,10 C20,11.5918754 19.3997261,13.0608845 18.313727,14.5812473 C17.7525112,15.3669308 15.9178094,17.7020058 12.7809864,21.624548 C12.3806588,22.1251507 11.6193412,22.1251507 11.2190136,21.624548 C8.0821906,17.7020058 6.24748884,15.3669308 5.68627304,14.5812473 C4.60027385,13.0608845 4,11.5918754 4,10 C4,5.581722 7.581722,2 12,2 Z M12,4 C8.6862915,4 6,6.6862915 6,10 C6,11.1098622 6.44851735,12.2074879 7.31372696,13.4187527 C7.79770378,14.0963042 9.36706059,16.099021 12,19.3979196 C14.6329394,16.099021 16.2022962,14.0963042 16.686273,13.4187527 C17.5514826,12.2074879 18,11.1098622 18,10 C18,6.6862915 15.3137085,4 12,4 Z M12,7 C13.6568542,7 15,8.34314575 15,10 C15,11.6568542 13.6568542,13 12,13 C10.3431458,13 9,11.6568542 9,10 C9,8.34314575 10.3431458,7 12,7 Z M12,9 C11.4477153,9 11,9.44771525 11,10 C11,10.5522847 11.4477153,11 12,11 C12.5522847,11 13,10.5522847 13,10 C13,9.44771525 12.5522847,9 12,9 Z" fill="#000000" fill-rule="nonzero"/></g><text x="0" y="39" fill="#000000" font-size="5px" font-weight="bold" font-family="'Helvetica Neue', Helvetica, Arial-Unicode, Arial, Sans-serif">Created by Stereo</text><text x="0" y="44" fill="#000000" font-size="5px" font-weight="bold" font-family="'Helvetica Neue', Helvetica, Arial-Unicode, Arial, Sans-serif">from the Noun Project</text></svg>