<svg xmlns="http://www.w3.org/2000/svg" xmlns:xlink="http://www.w3.org/1999/xlink" version="1.1" x="0px" y="0px" viewBox="0 0 100 125" style="enable-background:new 0 0 100 100;" xml:space="preserve"><title>icons_set</title><path d="M76.9,48.6l-6.8-6.8c-0.8-0.8-2-0.8-2.8,0c0,0,0,0,0,0l-1.4,1.4l4.8,4.8H47.2c-1.1,0-2,0.9-2,2s0.9,2,2,2h23.5l-4.8,4.8  l1.4,1.4c0.8,0.8,2,0.8,2.8,0c0,0,0,0,0,0l6.8-6.8C77.7,50.6,77.7,49.4,76.9,48.6C76.9,48.6,76.9,48.6,76.9,48.6z M37.2,71.4  c-6,0-10.9-4.7-11.1-10.7V39.3c0.2-6,5.1-10.7,11.1-10.7h12.9c5.9,0,10.6,4.8,10.7,10.7c0,1.2-0.9,2.1-2.1,2.1  c-1.2,0-2.1-0.9-2.1-2.1c0-3.6-2.9-6.5-6.5-6.5H37.2c-3.6,0-6.7,2.8-6.9,6.5v21.4c0.2,3.6,3.2,6.5,6.9,6.5h12.9  c3.6,0,6.5-2.9,6.5-6.5c0-1.2,0.9-2.1,2.1-2.1c1.2,0,2.1,0.9,2.1,2.1l0,0c0,5.9-4.8,10.7-10.7,10.7H37.2z"/><text x="0" y="115" fill="#000000" font-size="5px" font-weight="bold" font-family="'Helvetica Neue', Helvetica, Arial-Unicode, Arial, Sans-serif">Created by Nikhil Bapna</text><text x="0" y="120" fill="#000000" font-size="5px" font-weight="bold" font-family="'Helvetica Neue', Helvetica, Arial-Unicode, Arial, Sans-serif">from the Noun Project</text></svg>