<svg xmlns="http://www.w3.org/2000/svg" version="1.1" viewBox="0 0 16 20" x="0px" y="0px"><path d="m5.5 2c-1.385 0-2.5 1.115-2.5 2.5s1.115 2.5 2.5 2.5 2.5-1.115 2.5-2.5-1.115-2.5-2.5-2.5zm6.5 2c-1.108001 0-2 0.892-2 2s0.891999 2 2 2c1.108 0 2-0.892 2-2s-0.892-2-2-2zm-6.5 4c-2.4929878 0-4.5 2.00701-4.5 4.5v1.5h9v-1.5c0-2.49299-2.0070124-4.5-4.5-4.5zm6.5 1c-0.689308 0-1.31481 0.2389731-1.820312 0.6269531 0.516714 0.8376999 0.820312 1.8199069 0.820312 2.8730469v0.5h4v-1c0-1.66199-1.338008-3-3-3z" style="color:#4d4d4d;" fill="#000000"/><text x="0" y="31" fill="#000000" font-size="5px" font-weight="bold" font-family="'Helvetica Neue', Helvetica, Arial-Unicode, Arial, Sans-serif">Created by Frey Wazza</text><text x="0" y="36" fill="#000000" font-size="5px" font-weight="bold" font-family="'Helvetica Neue', Helvetica, Arial-Unicode, Arial, Sans-serif">from the Noun Project</text></svg>