<svg xmlns="http://www.w3.org/2000/svg" viewBox="0 0 32 40" x="0px" y="0px"><title>09</title><g data-name="09"><circle cx="16" cy="16" r="3"/><path d="M28.74,13l-1.09-1.09a16.49,16.49,0,0,0-23.3,0L3.26,13a4.32,4.32,0,0,0,0,6.1l1.09,1.09a16.49,16.49,0,0,0,23.3,0l1.09-1.09a4.32,4.32,0,0,0,0-6.1ZM16,21a5,5,0,1,1,5-5A5,5,0,0,1,16,21Z"/></g><text x="0" y="47" fill="#000000" font-size="5px" font-weight="bold" font-family="'Helvetica Neue', Helvetica, Arial-Unicode, Arial, Sans-serif">Created by ghufronagustian</text><text x="0" y="52" fill="#000000" font-size="5px" font-weight="bold" font-family="'Helvetica Neue', Helvetica, Arial-Unicode, Arial, Sans-serif">from the Noun Project</text></svg>