<svg xmlns="http://www.w3.org/2000/svg" xmlns:xlink="http://www.w3.org/1999/xlink" xml:space="preserve" version="1.1" style="shape-rendering:geometricPrecision;text-rendering:geometricPrecision;image-rendering:optimizeQuality;" viewBox="0 0 846.66 1058.325" x="0px" y="0px" fill-rule="evenodd" clip-rule="evenodd"><defs><style type="text/css">
   
    .fil0 {fill:black}
   
  </style></defs><g><path class="fil0" d="M271 82.91l304.66 0 0 479.93 -304.66 0 0 -479.93zm523.49 146.47l0 534.36 -742.32 0 0 -534.36 160.16 0 0 75.32 -84.82 0 0 383.72 591.65 0 0 -383.72 -84.82 0 0 -75.32 160.15 0zm-439.91 84.15c-22.63,19.37 -52.11,-15.09 -29.48,-34.46l83.49 -71.77c8.69,-7.43 21.37,-7.14 29.7,0.2l83.27 71.57c22.64,19.37 -6.84,53.83 -29.48,34.46l-46.01 -39.55 0 147.49c0,29.9 -45.47,29.9 -45.47,0l0 -147.49 -46.02 39.55z"/></g><text x="0" y="861.66" fill="#000000" font-size="5px" font-weight="bold" font-family="'Helvetica Neue', Helvetica, Arial-Unicode, Arial, Sans-serif">Created by angelina</text><text x="0" y="866.66" fill="#000000" font-size="5px" font-weight="bold" font-family="'Helvetica Neue', Helvetica, Arial-Unicode, Arial, Sans-serif">from the Noun Project</text></svg>