<svg width="1165" height="745" viewBox="0 0 1165 745" fill="none" xmlns="http://www.w3.org/2000/svg">
<circle cx="20.5" cy="278.5" r="20.5" fill="#F44174"/>
<circle cx="194" cy="439" r="8" fill="#FFBF46"/>
<circle cx="1063" cy="166" r="21" fill="#008470"/>
<circle cx="831" cy="15" r="15" fill="#ED1C24"/>
<ellipse cx="1009.22" cy="599.872" rx="5.22144" ry="4.87189" fill="#B5F3E3"/>
<ellipse cx="1009.22" cy="627.824" rx="5.22144" ry="4.87189" fill="#B5F3E3"/>
<ellipse cx="1009.22" cy="655.777" rx="5.22144" ry="4.87189" fill="#B5F3E3"/>
<ellipse cx="1009.22" cy="683.73" rx="5.22144" ry="4.87189" fill="#B5F3E3"/>
<ellipse cx="1009.22" cy="711.682" rx="5.22144" ry="4.87189" fill="#B5F3E3"/>
<ellipse cx="1009.22" cy="739.634" rx="5.22144" ry="4.87189" fill="#B5F3E3"/>
<ellipse cx="1039.18" cy="599.872" rx="5.22144" ry="4.87189" fill="#B5F3E3"/>
<ellipse cx="1039.18" cy="627.824" rx="5.22144" ry="4.87189" fill="#B5F3E3"/>
<ellipse cx="1039.18" cy="655.777" rx="5.22144" ry="4.87189" fill="#B5F3E3"/>
<ellipse cx="1039.18" cy="683.73" rx="5.22144" ry="4.87189" fill="#B5F3E3"/>
<ellipse cx="1039.18" cy="711.682" rx="5.22144" ry="4.87189" fill="#B5F3E3"/>
<ellipse cx="1039.18" cy="739.634" rx="5.22144" ry="4.87189" fill="#B5F3E3"/>
<ellipse cx="1069.14" cy="599.872" rx="5.22144" ry="4.87189" fill="#B5F3E3"/>
<ellipse cx="1069.14" cy="627.824" rx="5.22144" ry="4.87189" fill="#B5F3E3"/>
<ellipse cx="1069.14" cy="655.777" rx="5.22144" ry="4.87189" fill="#B5F3E3"/>
<ellipse cx="1069.14" cy="683.73" rx="5.22144" ry="4.87189" fill="#B5F3E3"/>
<ellipse cx="1069.14" cy="711.682" rx="5.22144" ry="4.87189" fill="#B5F3E3"/>
<ellipse cx="1069.14" cy="739.634" rx="5.22144" ry="4.87189" fill="#B5F3E3"/>
<ellipse cx="1099.1" cy="599.872" rx="5.22144" ry="4.87189" fill="#B5F3E3"/>
<ellipse cx="1129.05" cy="599.872" rx="5.22144" ry="4.87189" fill="#B5F3E3"/>
<ellipse cx="1159.01" cy="599.872" rx="5.22144" ry="4.87189" fill="#B5F3E3"/>
<ellipse cx="1099.1" cy="627.824" rx="5.22144" ry="4.87189" fill="#B5F3E3"/>
<ellipse cx="1129.05" cy="627.824" rx="5.22144" ry="4.87189" fill="#B5F3E3"/>
<ellipse cx="1159.01" cy="627.824" rx="5.22144" ry="4.87189" fill="#B5F3E3"/>
<ellipse cx="1099.1" cy="655.777" rx="5.22144" ry="4.87189" fill="#B5F3E3"/>
<ellipse cx="1129.05" cy="655.777" rx="5.22144" ry="4.87189" fill="#B5F3E3"/>
<ellipse cx="1159.01" cy="655.777" rx="5.22144" ry="4.87189" fill="#B5F3E3"/>
<ellipse cx="1099.1" cy="683.73" rx="5.22144" ry="4.87189" fill="#B5F3E3"/>
<ellipse cx="1099.1" cy="711.682" rx="5.22144" ry="4.87189" fill="#B5F3E3"/>
<ellipse cx="1099.1" cy="739.634" rx="5.22144" ry="4.87189" fill="#B5F3E3"/>
<ellipse cx="1129.05" cy="683.73" rx="5.22144" ry="4.87189" fill="#B5F3E3"/>
<ellipse cx="1129.05" cy="711.682" rx="5.22144" ry="4.87189" fill="#B5F3E3"/>
<ellipse cx="1129.05" cy="739.634" rx="5.22144" ry="4.87189" fill="#B5F3E3"/>
<ellipse cx="1159.01" cy="683.73" rx="5.22144" ry="4.87189" fill="#B5F3E3"/>
<ellipse cx="1159.01" cy="711.682" rx="5.22144" ry="4.87189" fill="#B5F3E3"/>
<ellipse cx="1159.01" cy="739.634" rx="5.22144" ry="4.87189" fill="#B5F3E3"/>
<ellipse cx="31.2214" cy="61.8719" rx="5.22144" ry="4.87189" fill="#B5F3E3"/>
<ellipse cx="31.2214" cy="89.8244" rx="5.22144" ry="4.87189" fill="#B5F3E3"/>
<ellipse cx="31.2214" cy="117.777" rx="5.22144" ry="4.87189" fill="#B5F3E3"/>
<ellipse cx="31.2214" cy="145.73" rx="5.22144" ry="4.87189" fill="#B5F3E3"/>
<ellipse cx="31.2214" cy="173.682" rx="5.22144" ry="4.87189" fill="#B5F3E3"/>
<ellipse cx="31.2214" cy="201.634" rx="5.22144" ry="4.87189" fill="#B5F3E3"/>
<ellipse cx="61.1792" cy="61.872" rx="5.22144" ry="4.87189" fill="#B5F3E3"/>
<ellipse cx="61.1792" cy="89.8244" rx="5.22144" ry="4.87189" fill="#B5F3E3"/>
<ellipse cx="61.1792" cy="117.777" rx="5.22144" ry="4.87189" fill="#B5F3E3"/>
<ellipse cx="61.1792" cy="145.73" rx="5.22144" ry="4.87189" fill="#B5F3E3"/>
<ellipse cx="61.1792" cy="173.682" rx="5.22144" ry="4.87189" fill="#B5F3E3"/>
<ellipse cx="61.1792" cy="201.634" rx="5.22144" ry="4.87189" fill="#B5F3E3"/>
<ellipse cx="91.1375" cy="61.872" rx="5.22144" ry="4.87189" fill="#B5F3E3"/>
<ellipse cx="91.1375" cy="89.8244" rx="5.22144" ry="4.87189" fill="#B5F3E3"/>
<ellipse cx="91.1375" cy="117.777" rx="5.22144" ry="4.87189" fill="#B5F3E3"/>
<ellipse cx="91.1375" cy="145.73" rx="5.22144" ry="4.87189" fill="#B5F3E3"/>
<ellipse cx="91.1375" cy="173.682" rx="5.22144" ry="4.87189" fill="#B5F3E3"/>
<ellipse cx="91.1375" cy="201.634" rx="5.22144" ry="4.87189" fill="#B5F3E3"/>
<ellipse cx="121.095" cy="61.872" rx="5.22144" ry="4.87189" fill="#B5F3E3"/>
<ellipse cx="151.053" cy="61.872" rx="5.22144" ry="4.87189" fill="#B5F3E3"/>
<ellipse cx="181.011" cy="61.872" rx="5.22144" ry="4.87189" fill="#B5F3E3"/>
<ellipse cx="121.095" cy="89.8244" rx="5.22144" ry="4.87189" fill="#B5F3E3"/>
<ellipse cx="151.053" cy="89.8244" rx="5.22144" ry="4.87189" fill="#B5F3E3"/>
<ellipse cx="181.011" cy="89.8244" rx="5.22144" ry="4.87189" fill="#B5F3E3"/>
<ellipse cx="121.095" cy="117.777" rx="5.22144" ry="4.87189" fill="#B5F3E3"/>
<ellipse cx="151.053" cy="117.777" rx="5.22144" ry="4.87189" fill="#B5F3E3"/>
<ellipse cx="181.011" cy="117.777" rx="5.22144" ry="4.87189" fill="#B5F3E3"/>
<ellipse cx="121.095" cy="145.73" rx="5.22144" ry="4.87189" fill="#B5F3E3"/>
<ellipse cx="121.095" cy="173.682" rx="5.22144" ry="4.87189" fill="#B5F3E3"/>
<ellipse cx="121.095" cy="201.634" rx="5.22144" ry="4.87189" fill="#B5F3E3"/>
<ellipse cx="151.053" cy="145.73" rx="5.22144" ry="4.87189" fill="#B5F3E3"/>
<ellipse cx="151.053" cy="173.682" rx="5.22144" ry="4.87189" fill="#B5F3E3"/>
<ellipse cx="151.053" cy="201.634" rx="5.22144" ry="4.87189" fill="#B5F3E3"/>
<ellipse cx="181.011" cy="145.73" rx="5.22144" ry="4.87189" fill="#B5F3E3"/>
<ellipse cx="181.011" cy="173.682" rx="5.22144" ry="4.87189" fill="#B5F3E3"/>
<ellipse cx="181.011" cy="201.634" rx="5.22144" ry="4.87189" fill="#B5F3E3"/>
<circle cx="930" cy="359" r="8" fill="#FFB597"/>
</svg>
