<svg width="223" height="238" viewBox="0 0 223 238" fill="none" xmlns="http://www.w3.org/2000/svg">
<path opacity="0.689655" d="M98.9165 108.808C104.38 108.808 108.808 113.237 108.808 118.7C108.808 124.163 104.38 128.591 98.9165 128.591C93.4535 128.591 89.0249 124.163 89.0249 118.7C89.0249 113.237 93.4535 108.808 98.9165 108.808ZM98.9165 127.234C103.63 127.234 107.451 123.413 107.451 118.7C107.451 113.987 103.63 110.166 98.9165 110.166C94.2033 110.166 90.3824 113.987 90.3824 118.7C90.3824 123.413 94.2033 127.234 98.9165 127.234Z" fill="#A9F1DF" fill-opacity="0.5"/>
<path opacity="0.724138" d="M105.486 83.1696C116.246 85.0668 123.431 95.3276 121.534 106.088C119.637 116.848 109.376 124.032 98.6158 122.135C87.8558 120.238 80.6711 109.977 82.5684 99.217C84.4657 88.4569 94.7264 81.2723 105.486 83.1696ZM99.0873 119.461C108.371 121.098 117.223 114.9 118.86 105.616C120.497 96.3328 114.298 87.4802 105.015 85.8433C95.7317 84.2064 86.8791 90.4051 85.2422 99.6884C83.6053 108.972 89.8039 117.824 99.0873 119.461Z" fill="#A9F1DF" fill-opacity="0.5"/>
<path opacity="0.758621" d="M117.426 63.1871C132.826 68.7925 140.767 85.8212 135.162 101.222C129.556 116.623 112.527 124.563 97.1268 118.958C81.7261 113.352 73.7855 96.3237 79.3909 80.923C84.9963 65.5224 102.025 57.5818 117.426 63.1871ZM98.5197 115.131C111.807 119.967 126.498 113.116 131.335 99.829C136.171 86.5419 129.32 71.8502 116.033 67.0141C102.746 62.178 88.0539 69.0288 83.2178 82.3159C78.3817 95.603 85.2326 110.295 98.5197 115.131Z" fill="#A9F1DF" fill-opacity="0.5"/>
<path opacity="0.793103" d="M133.182 50.1685C152.107 61.0945 158.59 85.293 147.664 104.217C136.738 123.142 112.54 129.626 93.6155 118.7C74.6911 107.774 68.2071 83.5752 79.1331 64.6508C90.0592 45.7264 114.258 39.2425 133.182 50.1685ZM96.3305 113.997C112.658 123.424 133.535 117.83 142.962 101.502C152.388 85.1751 146.794 64.2976 130.467 54.871C114.14 45.4445 93.2623 51.0386 83.8357 67.3659C74.4092 83.6931 80.0033 104.571 96.3305 113.997Z" fill="#A9F1DF" fill-opacity="0.5"/>
<path opacity="0.827586" d="M150.928 45.0415C171.852 62.5993 174.582 93.7953 157.024 114.72C139.466 135.644 108.27 138.374 87.3455 120.816C66.4209 103.258 63.6916 72.0621 81.2494 51.1376C98.8071 30.2131 130.003 27.4838 150.928 45.0415ZM91.7084 115.616C109.761 130.764 136.676 128.41 151.824 110.357C166.972 92.304 164.618 65.3893 146.565 50.2411C128.512 35.0929 101.597 37.4477 86.449 55.5005C71.3008 73.5534 73.6555 100.468 91.7084 115.616Z" fill="#A9F1DF" fill-opacity="0.5"/>
<path opacity="0.862069" d="M168.645 48.2991C189.715 73.4085 186.439 110.844 161.33 131.913C136.221 152.982 98.7853 149.707 77.716 124.598C56.6467 99.4884 59.9219 62.0531 85.0313 40.9838C110.141 19.9145 147.576 23.1897 168.645 48.2991ZM83.9555 119.362C102.133 141.026 134.431 143.851 156.094 125.674C177.758 107.496 180.584 75.1981 162.406 53.5347C144.228 31.8712 111.93 29.0455 90.2668 47.2233C68.6034 65.4011 65.7777 97.6988 83.9555 119.362Z" fill="#A9F1DF" fill-opacity="0.5"/>
<path opacity="0.896552" d="M184.226 59.9648C203.346 93.0826 191.999 135.43 158.881 154.551C125.764 173.671 83.4163 162.324 64.2958 129.206C45.1753 96.0887 56.5223 53.7412 89.64 34.6207C122.758 15.5002 165.105 26.8471 184.226 59.9648ZM72.5253 124.455C89.0217 153.028 125.557 162.817 154.13 146.321C182.703 129.825 192.493 93.2888 175.996 64.7161C159.5 36.1435 122.964 26.3537 94.3913 42.8502C65.8186 59.3466 56.0289 95.8824 72.5253 124.455Z" fill="#A9F1DF" fill-opacity="0.5"/>
<path opacity="0.931035" d="M195.57 79.5804C210.518 120.649 189.343 166.059 148.274 181.006C107.206 195.954 61.796 174.779 46.8483 133.711C31.9007 92.6423 53.0757 47.2324 94.1441 32.2847C135.212 17.3371 180.622 38.5121 195.57 79.5804ZM57.0535 129.996C69.9498 165.429 109.128 183.698 144.56 170.801C179.992 157.905 198.261 118.727 185.365 83.2948C172.469 47.8626 133.291 29.5936 97.8584 42.4899C62.4262 55.3862 44.1572 94.5641 57.0535 129.996Z" fill="#A9F1DF" fill-opacity="0.5"/>
<path opacity="0.965517" d="M200.695 106.213C209.233 154.633 176.902 200.806 128.482 209.344C80.0618 217.882 33.8884 185.551 25.3506 137.131C16.8128 88.7105 49.1438 42.537 97.5639 33.9993C145.984 25.4615 192.157 57.7925 200.695 106.213ZM37.3826 135.009C44.7487 176.784 84.5854 204.678 126.36 197.312C168.135 189.946 196.029 150.109 188.663 108.334C181.297 66.5592 141.46 38.6652 99.6855 46.0313C57.9105 53.3973 30.0166 93.234 37.3826 135.009Z" fill="#A9F1DF" fill-opacity="0.5"/>
<path d="M197.833 138.483C197.833 193.113 153.546 237.399 98.9165 237.399C44.2864 237.399 0 193.113 0 138.483C0 83.8529 44.2864 39.5665 98.9165 39.5665C153.546 39.5665 197.833 83.8529 197.833 138.483ZM13.5751 138.483C13.5751 185.616 51.7837 223.824 98.9165 223.824C146.049 223.824 184.258 185.616 184.258 138.483C184.258 91.3503 146.049 53.1417 98.9165 53.1417C51.7837 53.1417 13.5751 91.3503 13.5751 138.483Z" fill="#A9F1DF" fill-opacity="0.5"/>
</svg>
