<svg width="462" height="251" viewBox="0 0 462 251" fill="none" xmlns="http://www.w3.org/2000/svg">
<rect x="3.5" y="26.5" width="199" height="49" rx="7.5" stroke="#F44174"/>
<path d="M37.1001 45.0898V47.1113H33.4966V57.6582H31.1675V47.1113H27.564V45.0898H37.1001ZM42.1011 48.4297C44.9019 48.4297 46.3022 49.8594 46.3022 52.7188C46.3022 53.0996 46.2759 53.4805 46.2231 53.8613H40.0972C40.0972 55.1621 41.0522 55.8125 42.9624 55.8125C43.894 55.8125 44.8257 55.7246 45.7573 55.5488V57.3945C44.9429 57.5703 43.9526 57.6582 42.7866 57.6582C39.4409 57.6582 37.7681 56.085 37.7681 52.9385C37.7681 49.9326 39.2124 48.4297 42.1011 48.4297ZM40.0972 52.2441H44.0347V52.1738C44.0347 50.8965 43.3901 50.2578 42.1011 50.2578C40.8706 50.2578 40.2026 50.9199 40.0972 52.2441ZM54.8628 57.3945C54.1011 57.5703 53.3101 57.6582 52.4897 57.6582C49.2085 57.6582 47.5679 56.0615 47.5679 52.8682C47.5679 49.9092 49.2085 48.4297 52.4897 48.4297C53.3101 48.4297 54.1011 48.5176 54.8628 48.6934V50.5391C54.1011 50.3633 53.3687 50.2754 52.6655 50.2754C50.8198 50.2754 49.897 51.1396 49.897 52.8682C49.897 54.8311 50.8198 55.8125 52.6655 55.8125C53.3687 55.8125 54.1011 55.7246 54.8628 55.5488V57.3945ZM56.4009 57.6582V45.0898H58.73V49.6074C59.4565 48.8223 60.3853 48.4297 61.5161 48.4297C63.7017 48.4297 64.7944 49.5664 64.7944 51.8398V57.6582H62.4653V51.8398C62.4653 50.8203 61.9585 50.3105 60.9448 50.3105C60.189 50.3105 59.4507 50.6123 58.73 51.2158V57.6582H56.4009ZM67.0005 57.6582V48.4297H68.8022L69.0923 49.7832C69.9771 48.8809 70.9849 48.4297 72.1157 48.4297C74.3013 48.4297 75.394 49.5664 75.394 51.8398V57.6582H73.0649V51.8398C73.0649 50.8203 72.5581 50.3105 71.5444 50.3105C70.7886 50.3105 70.0503 50.6123 69.3296 51.2158V57.6582H67.0005ZM79.9292 45.0898V46.9355H77.6001V45.0898H79.9292ZM79.9292 48.4297V57.6582H77.6001V48.4297H79.9292ZM88.9468 57.3945C88.1851 57.5703 87.394 57.6582 86.5737 57.6582C83.2925 57.6582 81.6519 56.0615 81.6519 52.8682C81.6519 49.9092 83.2925 48.4297 86.5737 48.4297C87.394 48.4297 88.1851 48.5176 88.9468 48.6934V50.5391C88.1851 50.3633 87.4526 50.2754 86.7495 50.2754C84.9038 50.2754 83.981 51.1396 83.981 52.8682C83.981 54.8311 84.9038 55.8125 86.7495 55.8125C87.4526 55.8125 88.1851 55.7246 88.9468 55.5488V57.3945ZM90.0454 54.7842C90.0454 52.9502 91.3813 52.0332 94.0532 52.0332C94.6802 52.0332 95.3071 52.0918 95.9341 52.209V51.5146C95.9341 50.6885 95.3394 50.2754 94.1499 50.2754C93.1421 50.2754 92.0229 50.4219 90.7925 50.7148V48.8691C92.0229 48.5762 93.1421 48.4297 94.1499 48.4297C96.8921 48.4297 98.2632 49.4434 98.2632 51.4707V57.6582H96.9097L96.0835 56.832C95.2808 57.3828 94.396 57.6582 93.4292 57.6582C91.1733 57.6582 90.0454 56.7002 90.0454 54.7842ZM95.9341 53.791C95.3481 53.6738 94.7212 53.6152 94.0532 53.6152C92.9341 53.6152 92.3745 53.9961 92.3745 54.7578C92.3745 55.5781 92.8433 55.9883 93.7808 55.9883C94.5542 55.9883 95.272 55.748 95.9341 55.2676V53.791ZM102.798 45.0898V57.6582H100.469V45.0898H102.798ZM114.101 55.6367C116.708 55.6367 118.012 54.1016 118.012 51.0312C118.012 48.418 116.708 47.1113 114.101 47.1113H111.508V55.6367H114.101ZM109.179 57.6582V45.0898H114.101C118.261 45.0898 120.341 47.0703 120.341 51.0312C120.341 55.4492 118.261 57.6582 114.101 57.6582H109.179ZM126.001 48.4297C128.802 48.4297 130.203 49.8594 130.203 52.7188C130.203 53.0996 130.176 53.4805 130.124 53.8613H123.998C123.998 55.1621 124.953 55.8125 126.863 55.8125C127.794 55.8125 128.726 55.7246 129.658 55.5488V57.3945C128.843 57.5703 127.853 57.6582 126.687 57.6582C123.341 57.6582 121.668 56.085 121.668 52.9385C121.668 49.9326 123.113 48.4297 126.001 48.4297ZM123.998 52.2441H127.935V52.1738C127.935 50.8965 127.291 50.2578 126.001 50.2578C124.771 50.2578 124.103 50.9199 123.998 52.2441ZM130.853 48.4297H133.314L135.555 54.8809L137.884 48.4297H140.345L136.592 57.6582H134.377L130.853 48.4297ZM143.773 45.0898V46.9355H141.444V45.0898H143.773ZM143.773 48.4297V57.6582H141.444V48.4297H143.773ZM152.791 57.3945C152.029 57.5703 151.238 57.6582 150.417 57.6582C147.136 57.6582 145.496 56.0615 145.496 52.8682C145.496 49.9092 147.136 48.4297 150.417 48.4297C151.238 48.4297 152.029 48.5176 152.791 48.6934V50.5391C152.029 50.3633 151.296 50.2754 150.593 50.2754C148.748 50.2754 147.825 51.1396 147.825 52.8682C147.825 54.8311 148.748 55.8125 150.593 55.8125C151.296 55.8125 152.029 55.7246 152.791 55.5488V57.3945ZM158.222 48.4297C161.023 48.4297 162.423 49.8594 162.423 52.7188C162.423 53.0996 162.397 53.4805 162.344 53.8613H156.218C156.218 55.1621 157.173 55.8125 159.083 55.8125C160.015 55.8125 160.947 55.7246 161.878 55.5488V57.3945C161.064 57.5703 160.074 57.6582 158.908 57.6582C155.562 57.6582 153.889 56.085 153.889 52.9385C153.889 49.9326 155.333 48.4297 158.222 48.4297ZM156.218 52.2441H160.156V52.1738C160.156 50.8965 159.511 50.2578 158.222 50.2578C156.992 50.2578 156.324 50.9199 156.218 52.2441ZM164.172 57.2188V55.2852C165.198 55.6953 166.381 55.9004 167.723 55.9004C168.725 55.9004 169.226 55.5781 169.226 54.9336C169.226 54.3184 168.889 54.0107 168.215 54.0107H166.545C164.67 54.0107 163.733 53.0879 163.733 51.2422C163.733 49.3086 165.101 48.3418 167.837 48.3418C168.998 48.3418 170.09 48.5176 171.116 48.8691V50.8027C170.09 50.3926 168.977 50.1875 167.776 50.1875C166.516 50.1875 165.886 50.5098 165.886 51.1543C165.886 51.7695 166.252 52.0771 166.985 52.0771H168.479C170.53 52.0771 171.555 53 171.555 54.8457C171.555 56.7793 170.249 57.7461 167.635 57.7461C166.352 57.7461 165.198 57.5703 164.172 57.2188Z" fill="#000F3B"/>
<rect x="0.5" y="201.5" width="199" height="49" rx="7.5" stroke="#233E8B"/>
<path d="M43.627 232.758C46.7031 232.758 48.2412 230.988 48.2412 227.449C48.2412 224.367 46.7031 222.826 43.627 222.826H40.6826V232.758H43.627ZM39.0566 234.076V221.508H43.627C47.7871 221.508 49.8672 223.488 49.8672 227.449C49.8672 231.867 47.7871 234.076 43.627 234.076H39.0566ZM53.8662 224.847V234.076H52.2402V224.847H53.8662ZM53.8662 221.508V223.046H52.2402V221.508H53.8662ZM62.8574 226.412C62.3008 226.271 61.6123 226.201 60.792 226.201C58.8291 226.201 57.8477 227.264 57.8477 229.391C57.8477 231.577 58.7764 232.67 60.6338 232.67C61.4775 232.67 62.2188 232.511 62.8574 232.195V226.412ZM64.4834 234.076C64.4834 236.302 63.0684 237.416 60.2383 237.416C59.1016 237.416 58.0938 237.269 57.2148 236.976V235.658C58.1113 235.951 59.125 236.097 60.2559 236.097C61.9902 236.097 62.8574 235.424 62.8574 234.076V233.636C62.166 233.929 61.4219 234.076 60.625 234.076C57.707 234.076 56.248 232.52 56.248 229.409C56.248 226.368 57.7861 224.847 60.8623 224.847C62.1104 224.847 63.3174 224.973 64.4834 225.225V234.076ZM68.9307 224.847V234.076H67.3047V224.847H68.9307ZM68.9307 221.508V223.046H67.3047V221.508H68.9307ZM71.752 223.353H72.7715L73.123 224.847H75.6191V226.166H73.3779V231.466C73.3779 232.327 73.75 232.758 74.4941 232.758H75.6191V234.076H74.0723C72.5254 234.076 71.752 233.247 71.752 231.589V223.353ZM77.2539 231.29C77.2539 229.397 78.502 228.451 80.998 228.451C81.8008 228.451 82.6035 228.51 83.4062 228.627V227.757C83.4062 226.696 82.5771 226.166 80.9189 226.166C79.9697 226.166 78.9971 226.312 78.001 226.605V225.287C78.9971 224.994 79.9697 224.847 80.9189 224.847C83.6611 224.847 85.0322 225.802 85.0322 227.713V234.076H84.1182L83.5557 233.162C82.6357 233.771 81.6338 234.076 80.5498 234.076C78.3525 234.076 77.2539 233.147 77.2539 231.29ZM80.998 229.769C79.5859 229.769 78.8799 230.267 78.8799 231.263C78.8799 232.26 79.4365 232.758 80.5498 232.758C81.6748 232.758 82.627 232.459 83.4062 231.861V229.945C82.6035 229.828 81.8008 229.769 80.998 229.769ZM89.3916 221.508V234.076H87.7656V221.508H89.3916ZM105.177 221.508V222.826H101.222V234.076H99.5957V222.826H95.6406V221.508H105.177ZM106.943 234.076V224.847H108.042L108.332 226.025C109.141 225.24 110.113 224.847 111.25 224.847V226.201C110.148 226.201 109.255 226.591 108.569 227.37V234.076H106.943ZM112.445 231.29C112.445 229.397 113.693 228.451 116.189 228.451C116.992 228.451 117.795 228.51 118.598 228.627V227.757C118.598 226.696 117.769 226.166 116.11 226.166C115.161 226.166 114.188 226.312 113.192 226.605V225.287C114.188 224.994 115.161 224.847 116.11 224.847C118.853 224.847 120.224 225.802 120.224 227.713V234.076H119.31L118.747 233.162C117.827 233.771 116.825 234.076 115.741 234.076C113.544 234.076 112.445 233.147 112.445 231.29ZM116.189 229.769C114.777 229.769 114.071 230.267 114.071 231.263C114.071 232.26 114.628 232.758 115.741 232.758C116.866 232.758 117.818 232.459 118.598 231.861V229.945C117.795 229.828 116.992 229.769 116.189 229.769ZM124.671 224.847V234.076H123.045V224.847H124.671ZM124.671 221.508V223.046H123.045V221.508H124.671ZM127.492 234.076V224.847H128.591L128.881 226.025C129.824 225.24 130.861 224.847 131.992 224.847C134.295 224.847 135.446 225.993 135.446 228.284V234.076H133.82V228.258C133.82 226.886 133.138 226.201 131.772 226.201C130.841 226.201 129.956 226.591 129.118 227.37V234.076H127.492ZM139.894 224.847V234.076H138.268V224.847H139.894ZM139.894 221.508V223.046H138.268V221.508H139.894ZM142.715 234.076V224.847H143.813L144.104 226.025C145.047 225.24 146.084 224.847 147.215 224.847C149.518 224.847 150.669 225.993 150.669 228.284V234.076H149.043V228.258C149.043 226.886 148.36 226.201 146.995 226.201C146.063 226.201 145.179 226.591 144.341 227.37V234.076H142.715ZM159.484 226.412C158.928 226.271 158.239 226.201 157.419 226.201C155.456 226.201 154.475 227.264 154.475 229.391C154.475 231.577 155.403 232.67 157.261 232.67C158.104 232.67 158.846 232.511 159.484 232.195V226.412ZM161.11 234.076C161.11 236.302 159.695 237.416 156.865 237.416C155.729 237.416 154.721 237.269 153.842 236.976V235.658C154.738 235.951 155.752 236.097 156.883 236.097C158.617 236.097 159.484 235.424 159.484 234.076V233.636C158.793 233.929 158.049 234.076 157.252 234.076C154.334 234.076 152.875 232.52 152.875 229.409C152.875 226.368 154.413 224.847 157.489 224.847C158.737 224.847 159.944 224.973 161.11 225.225V234.076Z" fill="#000F3B"/>
<rect x="253.5" y="128.5" width="199" height="49" rx="7.5" stroke="#FFBF46"/>
<path d="M274.494 161V148.432H276.56L281.174 158.917L285.7 148.432H287.678V161H286.228V150.69L281.763 161H280.479L275.944 150.69V161H274.494ZM294.296 151.771C296.921 151.771 298.233 153.069 298.233 155.665C298.233 156.034 298.207 156.43 298.154 156.852H291.677C291.677 158.738 292.778 159.682 294.981 159.682C296.03 159.682 296.962 159.564 297.776 159.33V160.648C296.962 160.883 295.972 161 294.806 161C291.636 161 290.051 159.427 290.051 156.28C290.051 153.274 291.466 151.771 294.296 151.771ZM291.677 155.498H296.669C296.634 153.881 295.843 153.072 294.296 153.072C292.655 153.072 291.782 153.881 291.677 155.498ZM300.422 161V151.771H301.521L301.811 152.949C302.754 152.164 303.791 151.771 304.922 151.771C307.225 151.771 308.376 152.917 308.376 155.208V161H306.75V155.182C306.75 153.811 306.067 153.125 304.702 153.125C303.771 153.125 302.886 153.515 302.048 154.294V161H300.422ZM311.021 150.277H312.041L312.393 151.771H314.889V153.09H312.647V158.39C312.647 159.251 313.02 159.682 313.764 159.682H314.889V161H313.342C311.795 161 311.021 160.171 311.021 158.513V150.277ZM318.149 156.351C318.149 158.571 319.072 159.682 320.918 159.682C322.764 159.682 323.687 158.571 323.687 156.351C323.687 154.177 322.764 153.09 320.918 153.09C319.072 153.09 318.149 154.177 318.149 156.351ZM316.523 156.386C316.523 153.31 317.988 151.771 320.918 151.771C323.848 151.771 325.312 153.31 325.312 156.386C325.312 159.456 323.848 160.991 320.918 160.991C318 160.991 316.535 159.456 316.523 156.386ZM327.51 161V151.771H328.608L328.898 152.949C329.707 152.164 330.68 151.771 331.816 151.771V153.125C330.715 153.125 329.821 153.515 329.136 154.294V161H327.51ZM335.253 151.771V161H333.627V151.771H335.253ZM335.253 148.432V149.97H333.627V148.432H335.253ZM338.074 161V151.771H339.173L339.463 152.949C340.406 152.164 341.443 151.771 342.574 151.771C344.877 151.771 346.028 152.917 346.028 155.208V161H344.402V155.182C344.402 153.811 343.72 153.125 342.354 153.125C341.423 153.125 340.538 153.515 339.7 154.294V161H338.074ZM354.844 153.336C354.287 153.195 353.599 153.125 352.778 153.125C350.815 153.125 349.834 154.188 349.834 156.315C349.834 158.501 350.763 159.594 352.62 159.594C353.464 159.594 354.205 159.436 354.844 159.119V153.336ZM356.47 161C356.47 163.227 355.055 164.34 352.225 164.34C351.088 164.34 350.08 164.193 349.201 163.9V162.582C350.098 162.875 351.111 163.021 352.242 163.021C353.977 163.021 354.844 162.348 354.844 161V160.561C354.152 160.854 353.408 161 352.611 161C349.693 161 348.234 159.444 348.234 156.333C348.234 153.292 349.772 151.771 352.849 151.771C354.097 151.771 355.304 151.897 356.47 152.149V161ZM363.686 161V148.432H368.783C371.35 148.432 372.633 149.554 372.633 151.798C372.633 154.241 370.878 155.732 367.368 156.271L367.034 154.9C369.612 154.52 370.901 153.509 370.901 151.868C370.901 150.474 370.146 149.776 368.634 149.776H365.312V161H363.686ZM374.619 161V151.771H375.718L376.008 152.949C376.816 152.164 377.789 151.771 378.926 151.771V153.125C377.824 153.125 376.931 153.515 376.245 154.294V161H374.619ZM381.747 156.351C381.747 158.571 382.67 159.682 384.516 159.682C386.361 159.682 387.284 158.571 387.284 156.351C387.284 154.177 386.361 153.09 384.516 153.09C382.67 153.09 381.747 154.177 381.747 156.351ZM380.121 156.386C380.121 153.31 381.586 151.771 384.516 151.771C387.445 151.771 388.91 153.31 388.91 156.386C388.91 159.456 387.445 160.991 384.516 160.991C381.598 160.991 380.133 159.456 380.121 156.386ZM397.277 153.336C396.721 153.195 396.032 153.125 395.212 153.125C393.249 153.125 392.268 154.188 392.268 156.315C392.268 158.501 393.196 159.594 395.054 159.594C395.897 159.594 396.639 159.436 397.277 159.119V153.336ZM398.903 161C398.903 163.227 397.488 164.34 394.658 164.34C393.521 164.34 392.514 164.193 391.635 163.9V162.582C392.531 162.875 393.545 163.021 394.676 163.021C396.41 163.021 397.277 162.348 397.277 161V160.561C396.586 160.854 395.842 161 395.045 161C392.127 161 390.668 159.444 390.668 156.333C390.668 153.292 392.206 151.771 395.282 151.771C396.53 151.771 397.737 151.897 398.903 152.149V161ZM401.549 161V151.771H402.647L402.938 152.949C403.746 152.164 404.719 151.771 405.855 151.771V153.125C404.754 153.125 403.86 153.515 403.175 154.294V161H401.549ZM407.051 158.214C407.051 156.321 408.299 155.375 410.795 155.375C411.598 155.375 412.4 155.434 413.203 155.551V154.681C413.203 153.62 412.374 153.09 410.716 153.09C409.767 153.09 408.794 153.236 407.798 153.529V152.211C408.794 151.918 409.767 151.771 410.716 151.771C413.458 151.771 414.829 152.727 414.829 154.637V161H413.915L413.353 160.086C412.433 160.695 411.431 161 410.347 161C408.149 161 407.051 160.071 407.051 158.214ZM410.795 156.693C409.383 156.693 408.677 157.191 408.677 158.188C408.677 159.184 409.233 159.682 410.347 159.682C411.472 159.682 412.424 159.383 413.203 158.785V156.869C412.4 156.752 411.598 156.693 410.795 156.693ZM417.475 161V151.771H418.573L418.846 152.932C419.73 152.158 420.694 151.771 421.737 151.771C423.073 151.771 423.984 152.193 424.471 153.037C425.473 152.193 426.489 151.771 427.521 151.771C429.642 151.771 430.702 152.94 430.702 155.278V161H429.076V155.19C429.076 153.813 428.496 153.125 427.336 153.125C426.469 153.125 425.657 153.523 424.901 154.32V161H423.275V155.217C423.275 153.822 422.701 153.125 421.553 153.125C420.639 153.125 419.821 153.523 419.101 154.32V161H417.475Z" fill="#000F3B"/>
<rect x="262.5" y="1.5" width="199" height="49" rx="7.5" stroke="#008470"/>
<path d="M311.647 19.4316V32H309.318V19.4316H311.647ZM314.073 32V22.7715H315.875L316.165 24.125C317.05 23.2227 318.058 22.7715 319.188 22.7715C321.374 22.7715 322.467 23.9082 322.467 26.1816V32H320.138V26.1816C320.138 25.1621 319.631 24.6523 318.617 24.6523C317.861 24.6523 317.123 24.9541 316.402 25.5576V32H314.073ZM324.541 21.2773H326.264L326.615 22.7715H328.936V24.6172H326.87V28.8623C326.87 29.7236 327.242 30.1543 327.986 30.1543H328.936V32H326.861C325.314 32 324.541 31.1709 324.541 29.5127V21.2773ZM334.42 22.7715C337.221 22.7715 338.621 24.2012 338.621 27.0605C338.621 27.4414 338.595 27.8223 338.542 28.2031H332.416C332.416 29.5039 333.371 30.1543 335.281 30.1543C336.213 30.1543 337.145 30.0664 338.076 29.8906V31.7363C337.262 31.9121 336.271 32 335.105 32C331.76 32 330.087 30.4268 330.087 27.2803C330.087 24.2744 331.531 22.7715 334.42 22.7715ZM332.416 26.5859H336.354V26.5156C336.354 25.2383 335.709 24.5996 334.42 24.5996C333.189 24.5996 332.521 25.2617 332.416 26.5859ZM340.37 32V22.7715H342.172L342.462 23.9492C343.271 23.1641 344.126 22.7715 345.028 22.7715V24.6523C344.161 24.6523 343.385 25.0127 342.699 25.7334V32H340.37ZM346.347 32V22.7715H348.148L348.438 24.125C349.323 23.2227 350.331 22.7715 351.462 22.7715C353.647 22.7715 354.74 23.9082 354.74 26.1816V32H352.411V26.1816C352.411 25.1621 351.904 24.6523 350.891 24.6523C350.135 24.6523 349.396 24.9541 348.676 25.5576V32H346.347ZM360.84 22.7715C363.641 22.7715 365.041 24.2012 365.041 27.0605C365.041 27.4414 365.015 27.8223 364.962 28.2031H358.836C358.836 29.5039 359.791 30.1543 361.701 30.1543C362.633 30.1543 363.564 30.0664 364.496 29.8906V31.7363C363.682 31.9121 362.691 32 361.525 32C358.18 32 356.507 30.4268 356.507 27.2803C356.507 24.2744 357.951 22.7715 360.84 22.7715ZM358.836 26.5859H362.773V26.5156C362.773 25.2383 362.129 24.5996 360.84 24.5996C359.609 24.5996 358.941 25.2617 358.836 26.5859ZM366.658 21.2773H368.381L368.732 22.7715H371.053V24.6172H368.987V28.8623C368.987 29.7236 369.359 30.1543 370.104 30.1543H371.053V32H368.979C367.432 32 366.658 31.1709 366.658 29.5127V21.2773ZM381.74 29.9785C384.348 29.9785 385.651 28.4434 385.651 25.373C385.651 22.7598 384.348 21.4531 381.74 21.4531H379.147V29.9785H381.74ZM376.818 32V19.4316H381.74C385.9 19.4316 387.98 21.4121 387.98 25.373C387.98 29.791 385.9 32 381.74 32H376.818ZM389.308 29.126C389.308 27.292 390.644 26.375 393.315 26.375C393.942 26.375 394.569 26.4336 395.196 26.5508V25.8564C395.196 25.0303 394.602 24.6172 393.412 24.6172C392.404 24.6172 391.285 24.7637 390.055 25.0566V23.2109C391.285 22.918 392.404 22.7715 393.412 22.7715C396.154 22.7715 397.525 23.7852 397.525 25.8125V32H396.172L395.346 31.1738C394.543 31.7246 393.658 32 392.691 32C390.436 32 389.308 31.042 389.308 29.126ZM395.196 28.1328C394.61 28.0156 393.983 27.957 393.315 27.957C392.196 27.957 391.637 28.3379 391.637 29.0996C391.637 29.9199 392.105 30.3301 393.043 30.3301C393.816 30.3301 394.534 30.0898 395.196 29.6094V28.1328ZM399.6 21.2773H401.322L401.674 22.7715H403.994V24.6172H401.929V28.8623C401.929 29.7236 402.301 30.1543 403.045 30.1543H403.994V32H401.92C400.373 32 399.6 31.1709 399.6 29.5127V21.2773ZM405.146 29.126C405.146 27.292 406.481 26.375 409.153 26.375C409.78 26.375 410.407 26.4336 411.034 26.5508V25.8564C411.034 25.0303 410.439 24.6172 409.25 24.6172C408.242 24.6172 407.123 24.7637 405.893 25.0566V23.2109C407.123 22.918 408.242 22.7715 409.25 22.7715C411.992 22.7715 413.363 23.7852 413.363 25.8125V32H412.01L411.184 31.1738C410.381 31.7246 409.496 32 408.529 32C406.273 32 405.146 31.042 405.146 29.126ZM411.034 28.1328C410.448 28.0156 409.821 27.957 409.153 27.957C408.034 27.957 407.475 28.3379 407.475 29.0996C407.475 29.9199 407.943 30.3301 408.881 30.3301C409.654 30.3301 410.372 30.0898 411.034 29.6094V28.1328Z" fill="#000F3B"/>
<mask id="path-9-inside-1" fill="white">
<path d="M198.884 225.228C212.718 225.843 226.529 223.579 239.442 218.578C252.355 213.576 264.088 205.948 273.899 196.175C283.71 186.403 291.384 174.699 296.436 161.806C301.487 148.913 303.806 135.111 303.245 121.275C302.683 107.438 299.255 93.8695 293.176 81.4276C287.097 68.9857 278.5 57.942 267.93 48.996C257.36 40.05 245.047 33.3968 231.772 29.4578C218.496 25.5189 204.547 24.38 190.809 26.1134L190.931 27.0826C204.536 25.3662 218.348 26.4939 231.494 30.3943C244.64 34.2948 256.832 40.8831 267.299 49.7417C277.766 58.6003 286.278 69.5361 292.298 81.8565C298.318 94.1768 301.713 107.613 302.268 121.314C302.824 135.015 300.528 148.682 295.526 161.45C290.524 174.217 282.925 185.806 273.21 195.483C263.495 205.16 251.876 212.714 239.089 217.667C226.302 222.619 212.626 224.861 198.928 224.252L198.884 225.228Z"/>
</mask>
<path d="M198.884 225.228C212.718 225.843 226.529 223.579 239.442 218.578C252.355 213.576 264.088 205.948 273.899 196.175C283.71 186.403 291.384 174.699 296.436 161.806C301.487 148.913 303.806 135.111 303.245 121.275C302.683 107.438 299.255 93.8695 293.176 81.4276C287.097 68.9857 278.5 57.942 267.93 48.996C257.36 40.05 245.047 33.3968 231.772 29.4578C218.496 25.5189 204.547 24.38 190.809 26.1134L190.931 27.0826C204.536 25.3662 218.348 26.4939 231.494 30.3943C244.64 34.2948 256.832 40.8831 267.299 49.7417C277.766 58.6003 286.278 69.5361 292.298 81.8565C298.318 94.1768 301.713 107.613 302.268 121.314C302.824 135.015 300.528 148.682 295.526 161.45C290.524 174.217 282.925 185.806 273.21 195.483C263.495 205.16 251.876 212.714 239.089 217.667C226.302 222.619 212.626 224.861 198.928 224.252L198.884 225.228Z" stroke="#008470" stroke-width="40" mask="url(#path-9-inside-1)"/>
<mask id="path-10-inside-2" fill="white">
<path d="M197.774 250.204C215.066 250.972 232.33 248.142 248.471 241.89C264.612 235.639 279.279 226.103 291.542 213.888C303.806 201.672 313.399 187.042 319.713 170.926C326.027 154.809 328.926 137.557 328.224 120.262C327.523 102.966 323.237 86.0052 315.638 70.4529C308.039 54.9005 297.293 41.0958 284.081 29.9133C270.869 18.7309 255.478 10.4143 238.883 5.49063C222.289 0.566926 204.853 -0.856636 187.679 1.31015L187.832 2.52164C204.838 0.376026 222.104 1.78568 238.536 6.66128C254.968 11.5369 270.209 19.7722 283.292 30.8454C296.376 41.9186 307.017 55.5885 314.541 70.9889C322.065 86.3894 326.309 103.185 327.004 120.311C327.699 137.437 324.829 154.521 318.576 170.48C312.323 186.44 302.824 200.926 290.681 213.023C278.537 225.119 264.013 234.561 248.03 240.752C232.046 246.942 214.951 249.745 197.828 248.984L197.774 250.204Z"/>
</mask>
<path d="M197.774 250.204C215.066 250.972 232.33 248.142 248.471 241.89C264.612 235.639 279.279 226.103 291.542 213.888C303.806 201.672 313.399 187.042 319.713 170.926C326.027 154.809 328.926 137.557 328.224 120.262C327.523 102.966 323.237 86.0052 315.638 70.4529C308.039 54.9005 297.293 41.0958 284.081 29.9133C270.869 18.7309 255.478 10.4143 238.883 5.49063C222.289 0.566926 204.853 -0.856636 187.679 1.31015L187.832 2.52164C204.838 0.376026 222.104 1.78568 238.536 6.66128C254.968 11.5369 270.209 19.7722 283.292 30.8454C296.376 41.9186 307.017 55.5885 314.541 70.9889C322.065 86.3894 326.309 103.185 327.004 120.311C327.699 137.437 324.829 154.521 318.576 170.48C312.323 186.44 302.824 200.926 290.681 213.023C278.537 225.119 264.013 234.561 248.03 240.752C232.046 246.942 214.951 249.745 197.828 248.984L197.774 250.204Z" stroke="#233E8B" stroke-width="40" mask="url(#path-10-inside-2)"/>
<mask id="path-11-inside-3" fill="white">
<path d="M203.457 75.3271C216.718 75.3618 229.422 80.6629 238.774 90.0643C248.127 99.4656 253.361 112.197 253.326 125.458C253.292 138.719 247.991 151.422 238.589 160.775C229.188 170.127 216.456 175.361 203.196 175.327L203.198 174.462C216.229 174.496 228.741 169.352 237.979 160.162C247.218 150.971 252.427 138.487 252.462 125.456C252.496 112.424 247.352 99.9129 238.161 90.6742C228.971 81.4354 216.487 76.226 203.455 76.1919L203.457 75.3271Z"/>
</mask>
<path d="M203.457 75.3271C216.718 75.3618 229.422 80.6629 238.774 90.0643C248.127 99.4656 253.361 112.197 253.326 125.458C253.292 138.719 247.991 151.422 238.589 160.775C229.188 170.127 216.456 175.361 203.196 175.327L203.198 174.462C216.229 174.496 228.741 169.352 237.979 160.162C247.218 150.971 252.427 138.487 252.462 125.456C252.496 112.424 247.352 99.9129 238.161 90.6742C228.971 81.4354 216.487 76.226 203.455 76.1919L203.457 75.3271Z" stroke="#FFBF46" stroke-width="40" mask="url(#path-11-inside-3)"/>
<mask id="path-12-inside-4" fill="white">
<path d="M203.523 50.3273C223.415 50.3794 242.47 58.3311 256.499 72.4331C270.527 86.5351 278.379 105.632 278.327 125.523C278.275 145.415 270.323 164.47 256.221 178.499C242.119 192.527 223.022 200.379 203.131 200.327L203.133 199.397C222.778 199.448 241.638 191.694 255.565 177.839C269.492 163.985 277.345 145.166 277.397 125.521C277.448 105.876 269.694 87.0161 255.839 73.0889C241.985 59.1618 223.165 51.3087 203.521 51.2572L203.523 50.3273Z"/>
</mask>
<path d="M203.523 50.3273C223.415 50.3794 242.47 58.3311 256.499 72.4331C270.527 86.5351 278.379 105.632 278.327 125.523C278.275 145.415 270.323 164.47 256.221 178.499C242.119 192.527 223.022 200.379 203.131 200.327L203.133 199.397C222.778 199.448 241.638 191.694 255.565 177.839C269.492 163.985 277.345 145.166 277.397 125.521C277.448 105.876 269.694 87.0161 255.839 73.0889C241.985 59.1618 223.165 51.3087 203.521 51.2572L203.523 50.3273Z" stroke="#F44174" stroke-width="40" mask="url(#path-12-inside-4)"/>
</svg>
