<svg xmlns="http://www.w3.org/2000/svg" xmlns:xlink="http://www.w3.org/1999/xlink" version="1.1" x="0px" y="0px" viewBox="0 0 64 80" style="enable-background:new 0 0 64 64;" xml:space="preserve"><g><g><path d="M9.77,54c-0.01,0-0.03,0-0.04,0c-0.75-0.03-1.51-0.18-2.25-0.44c-0.52-0.19-0.79-0.76-0.61-1.28    c0.19-0.52,0.76-0.79,1.28-0.61c0.55,0.2,1.11,0.31,1.66,0.33c0.55,0.02,0.98,0.49,0.96,1.04C10.74,53.57,10.3,54,9.77,54z     M14.28,52.21c-0.25,0-0.51-0.1-0.7-0.29c-0.39-0.39-0.4-1.02-0.01-1.41c0.39-0.4,0.71-0.86,0.95-1.36    c0.24-0.5,0.83-0.71,1.33-0.47c0.5,0.24,0.71,0.83,0.47,1.33c-0.33,0.7-0.78,1.34-1.33,1.9C14.8,52.11,14.54,52.21,14.28,52.21z     M4.39,50.2c-0.41,0-0.79-0.25-0.94-0.65C3.18,48.82,3.03,48.05,3,47.27c-0.02-0.55,0.41-1.01,0.97-1.03    c0.56-0.02,1.01,0.41,1.03,0.97c0.02,0.56,0.13,1.11,0.32,1.64c0.19,0.52-0.07,1.09-0.59,1.29C4.62,50.18,4.5,50.2,4.39,50.2z     M56.34,50h-2c-0.55,0-1-0.45-1-1s0.45-1,1-1h2c0.55,0,1,0.45,1,1S56.89,50,56.34,50z M48.34,50h-2c-0.55,0-1-0.45-1-1s0.45-1,1-1    h2c0.55,0,1,0.45,1,1S48.89,50,48.34,50z M52.34,47h-2c-0.55,0-1-0.45-1-1s0.45-1,1-1h2c0.55,0,1,0.45,1,1S52.89,47,52.34,47z     M45,46.34c-0.55,0-1-0.45-1-1v-2c0-0.55,0.45-1,1-1s1,0.45,1,1v2C46,45.89,45.55,46.34,45,46.34z M57,45.66c-0.55,0-1-0.45-1-1    v-2c0-0.55,0.45-1,1-1s1,0.45,1,1v2C58,45.22,57.55,45.66,57,45.66z M16,45.66c-0.55,0-1-0.45-1-1v-2c0-0.55,0.45-1,1-1    s1,0.45,1,1v2C17,45.22,16.55,45.66,16,45.66z M4,43.24c-0.55,0-1-0.45-1-1v-2c0-0.55,0.45-1,1-1s1,0.45,1,1v2    C5,42.79,4.55,43.24,4,43.24z M42.34,42h-2c-0.55,0-1-0.45-1-1s0.45-1,1-1h2c0.55,0,1,0.45,1,1S42.89,42,42.34,42z M35.34,42h-2    c-0.55,0-1-0.45-1-1s0.45-1,1-1h2c0.55,0,1,0.45,1,1S35.89,42,35.34,42z M28.34,42h-2c-0.55,0-1-0.45-1-1s0.45-1,1-1h2    c0.55,0,1,0.45,1,1S28.89,42,28.34,42z M21.34,42h-2c-0.55,0-1-0.45-1-1s0.45-1,1-1h2c0.55,0,1,0.45,1,1S21.89,42,21.34,42z     M59.69,40.33c-0.15,0-0.3-0.03-0.44-0.1c-0.5-0.25-0.7-0.84-0.45-1.34C58.93,38.61,59,38.31,59,38c0-0.13-0.01-0.25-0.03-0.38    c-0.1-0.54,0.25-1.09,0.79-1.19c0.54-0.1,1.05,0.22,1.16,0.76C60.98,37.51,61,37.76,61,38c0,0.62-0.14,1.22-0.41,1.77    C60.41,40.13,60.06,40.33,59.69,40.33z M4,36.24c-0.55,0-1-0.45-1-1v-2c0-0.55,0.45-1,1-1s1,0.45,1,1v2    C5,35.79,4.55,36.24,4,36.24z M56.85,36h-2c-0.55,0-1-0.45-1-1s0.45-1,1-1h2c0.55,0,1,0.45,1,1S57.41,36,56.85,36z M49.85,36h-2    c-0.55,0-1-0.45-1-1s0.45-1,1-1h2c0.55,0,1,0.45,1,1S50.41,36,49.85,36z M42.85,36h-2c-0.55,0-1-0.45-1-1s0.45-1,1-1h2    c0.55,0,1,0.45,1,1S43.41,36,42.85,36z M35.85,36h-2c-0.55,0-1-0.45-1-1s0.45-1,1-1h2c0.55,0,1,0.45,1,1S36.41,36,35.85,36z     M28.85,36h-2c-0.55,0-1-0.45-1-1s0.45-1,1-1h2c0.55,0,1,0.45,1,1S29.41,36,28.85,36z M21.85,36h-2c-0.55,0-1-0.45-1-1s0.45-1,1-1    h2c0.55,0,1,0.45,1,1S22.41,36,21.85,36z M16,34.85c-0.55,0-1-0.45-1-1v-2c0-0.55,0.45-1,1-1s1,0.45,1,1v2    C17,34.41,16.55,34.85,16,34.85z M4.05,29.24c-0.04,0-0.08,0-0.13-0.01c-0.55-0.07-0.94-0.57-0.87-1.12    c0.1-0.78,0.32-1.52,0.67-2.23c0.25-0.49,0.84-0.7,1.34-0.45c0.49,0.25,0.7,0.85,0.45,1.34c-0.25,0.5-0.41,1.03-0.48,1.59    C4.98,28.87,4.55,29.24,4.05,29.24z M15.65,27.89c-0.41,0-0.8-0.26-0.94-0.67c-0.19-0.53-0.46-1.02-0.8-1.45    c-0.34-0.43-0.27-1.06,0.16-1.41c0.43-0.34,1.06-0.27,1.41,0.16c0.48,0.6,0.86,1.29,1.12,2.03c0.18,0.52-0.09,1.09-0.61,1.28    C15.87,27.88,15.76,27.89,15.65,27.89z M8.35,24.23c-0.44,0-0.84-0.29-0.96-0.73c-0.15-0.53,0.16-1.08,0.69-1.24    c0.75-0.21,1.54-0.3,2.3-0.26c0.55,0.03,0.97,0.5,0.95,1.05c-0.03,0.55-0.51,0.97-1.05,0.95c-0.56-0.03-1.12,0.03-1.65,0.18    C8.53,24.22,8.44,24.23,8.35,24.23z"/></g><g><path d="M55.53,31c-0.27,0-0.53-0.11-0.73-0.31c-0.38-0.4-0.36-1.03,0.04-1.41c2.35-2.22,3.47-5.34,3.07-8.56    C57.3,15.75,52.89,12,47.66,12H17c-4.45,0-8.4,2.99-9.61,7.27c-0.15,0.53-0.71,0.84-1.23,0.69c-0.53-0.15-0.84-0.7-0.69-1.23    C6.92,13.59,11.66,10,17,10h30.66c6.23,0,11.5,4.5,12.24,10.47c0.48,3.86-0.86,7.6-3.68,10.26C56.03,30.91,55.78,31,55.53,31z"/></g><g><path d="M22,31c-1.1,0-2-0.9-2-2s0.9-2,2-2s2,0.9,2,2S23.1,31,22,31z M22,29L22,29L22,29z M22,29L22,29L22,29z M22,29L22,29L22,29    z M22,29L22,29L22,29z M22,29L22,29L22,29z M22,29L22,29L22,29z M22,29L22,29L22,29z M22,29L22,29L22,29z"/></g><g><path d="M22,25.5c-0.55,0-1-0.45-1-1c0-1.42,0.85-2.68,2.15-3.23c1.38-0.57,2.1-2.01,1.76-3.49c-0.24-1.07-1.13-1.95-2.2-2.2    c-0.94-0.22-1.86-0.01-2.59,0.57C19.41,16.73,19,17.58,19,18.5c0,0.55-0.45,1-1,1s-1-0.45-1-1c0-1.53,0.69-2.96,1.88-3.91    c1.2-0.96,2.76-1.3,4.28-0.96c1.83,0.42,3.28,1.87,3.7,3.7c0.55,2.41-0.69,4.84-2.95,5.78C23.36,23.35,23,23.89,23,24.5    C23,25.05,22.55,25.5,22,25.5z"/></g><g><path d="M34,31c-1.1,0-2-0.9-2-2s0.9-2,2-2s2,0.9,2,2S35.1,31,34,31z M34,29L34,29L34,29z M34,29L34,29L34,29z M34,29L34,29L34,29    z M34,29L34,29L34,29z M34,29L34,29L34,29z M34,29L34,29L34,29z M34,29L34,29L34,29z M34,29L34,29L34,29z"/></g><g><path d="M34,25.5c-0.55,0-1-0.45-1-1c0-1.42,0.85-2.68,2.15-3.23c1.38-0.57,2.1-2.01,1.76-3.49c-0.24-1.07-1.13-1.95-2.2-2.2    c-0.94-0.22-1.86-0.01-2.59,0.57C31.41,16.73,31,17.58,31,18.5c0,0.55-0.45,1-1,1s-1-0.45-1-1c0-1.53,0.69-2.96,1.88-3.91    c1.2-0.96,2.76-1.3,4.28-0.96c1.83,0.42,3.28,1.87,3.7,3.7c0.55,2.41-0.69,4.84-2.95,5.78C35.36,23.35,35,23.89,35,24.5    C35,25.05,34.55,25.5,34,25.5z"/></g><g><path d="M47,31c-1.1,0-2-0.9-2-2s0.9-2,2-2s2,0.9,2,2S48.1,31,47,31z M47,29L47,29L47,29z M47,29L47,29L47,29z M47,29L47,29L47,29    z M47,29L47,29L47,29z M47,29L47,29L47,29z M47,29L47,29L47,29z M47,29L47,29L47,29z M47,29L47,29L47,29z"/></g><g><path d="M47,25.5c-0.55,0-1-0.45-1-1c0-1.42,0.85-2.68,2.15-3.23c1.38-0.57,2.1-2.01,1.76-3.49c-0.24-1.07-1.13-1.95-2.2-2.2    c-0.94-0.22-1.86-0.01-2.59,0.57C44.41,16.73,44,17.58,44,18.5c0,0.55-0.45,1-1,1s-1-0.45-1-1c0-1.53,0.69-2.96,1.88-3.91    c1.2-0.96,2.76-1.3,4.28-0.96c1.83,0.42,3.28,1.87,3.7,3.7c0.55,2.41-0.69,4.84-2.95,5.78C48.36,23.35,48,23.89,48,24.5    C48,25.05,47.55,25.5,47,25.5z"/></g></g></svg>