<svg xmlns="http://www.w3.org/2000/svg" viewBox="0 0 16 20" x="0px" y="0px"><title>menu, hamburger, interface, line, navigation</title><g data-name="31"><path d="M15.5,4H.5a.5.5,0,0,1,0-1h15a.5.5,0,0,1,0,1Z"/><path d="M15.5,9H.5a.5.5,0,0,1,0-1h15a.5.5,0,0,1,0,1Z"/><path d="M15.5,14H.5a.5.5,0,0,1,0-1h15a.5.5,0,0,1,0,1Z"/></g><text x="0" y="31" fill="#000000" font-size="5px" font-weight="bold" font-family="'Helvetica Neue', Helvetica, Arial-Unicode, Arial, Sans-serif">Created by Kantor Tegalsari</text><text x="0" y="36" fill="#000000" font-size="5px" font-weight="bold" font-family="'Helvetica Neue', Helvetica, Arial-Unicode, Arial, Sans-serif">from the Noun Project</text></svg>