<svg xmlns="http://www.w3.org/2000/svg" viewBox="0 0 32 40" x="0px" y="0px"><title>UI Icon</title><g data-name="90 - Menu"><path d="M28,26.5H4a1.5,1.5,0,0,1,0-3H28a1.5,1.5,0,0,1,0,3ZM19.53,16A1.5,1.5,0,0,0,18,14.5H4a1.5,1.5,0,0,0,0,3H18A1.5,1.5,0,0,0,19.53,16Zm10-9A1.5,1.5,0,0,0,28,5.5H4a1.5,1.5,0,0,0,0,3H28A1.5,1.5,0,0,0,29.53,7Z"/></g><text x="0" y="47" fill="#000000" font-size="5px" font-weight="bold" font-family="'Helvetica Neue', Helvetica, Arial-Unicode, Arial, Sans-serif">Created by Ricki Tri Putra</text><text x="0" y="52" fill="#000000" font-size="5px" font-weight="bold" font-family="'Helvetica Neue', Helvetica, Arial-Unicode, Arial, Sans-serif">from the Noun Project</text></svg>