<svg width="655" height="477" viewBox="0 0 655 477" fill="none" xmlns="http://www.w3.org/2000/svg">
<ellipse cx="383.342" cy="242.126" rx="215.342" ry="119.126" fill="#F44174" fill-opacity="0.6"/>
<ellipse rx="191.459" ry="110.928" transform="matrix(0.856511 -0.516129 0.536636 0.843814 383.485 247.74)" fill="#FFBF46" fill-opacity="0.6"/>
<ellipse rx="175.499" ry="103.032" transform="matrix(0.771893 0.635752 -0.656038 0.754728 383.241 242.335)" fill="#1EAE98" fill-opacity="0.6"/>
<ellipse rx="153.065" ry="92.6489" transform="matrix(-0.00812822 0.999967 -0.999988 0.00483359 382.892 235.508)" fill="#233E8B" fill-opacity="0.6"/>
<ellipse cx="383.315" cy="242.327" rx="95.3155" ry="81.3266" fill="#233E8B"/>
<path d="M348.377 190.366L347.842 193.041H343.073L340.281 207H337.198L339.99 193.041H335.221L335.756 190.366H348.377ZM350.25 200.847C349.738 203.398 350.432 204.674 352.332 204.674C354.232 204.674 355.438 203.398 355.95 200.847C356.446 198.357 355.744 197.113 353.844 197.113C351.944 197.113 350.746 198.357 350.25 200.847ZM347.156 200.893C347.985 196.744 350.378 194.67 354.333 194.67C358.288 194.67 359.85 196.744 359.021 200.893C358.191 205.034 355.798 207.105 351.843 207.105C347.904 207.105 346.341 205.034 347.156 200.893ZM369.827 197.555C369.362 197.368 368.586 197.275 367.501 197.275C365.523 197.275 364.286 198.528 363.79 201.033C363.332 203.305 363.712 204.441 364.93 204.441C366.434 204.441 367.822 203.378 369.094 201.254L369.827 197.555ZM371.025 207C370.436 209.947 367.958 211.42 363.592 211.42C362.088 211.42 360.793 211.226 359.707 210.839L360.195 208.396C361.304 208.784 362.607 208.977 364.104 208.977C366.399 208.977 367.679 208.318 367.943 207L368.571 203.859C367.237 205.953 365.655 207 363.825 207C360.971 207 359.94 205.019 360.731 201.056C361.568 196.876 364.1 194.786 368.326 194.786C369.746 194.786 371.424 194.953 373.363 195.286L371.025 207ZM381.482 194.786C384.957 194.786 386.449 196.004 385.961 198.439C385.472 200.874 383.588 202.091 380.308 202.091H377.248C376.923 203.735 377.83 204.557 379.97 204.557C381.591 204.557 383.119 204.053 384.553 203.045L384.065 205.488C382.785 206.496 381.18 207 379.249 207C375.209 207 373.604 204.918 374.433 200.753C375.232 196.775 377.582 194.786 381.482 194.786ZM377.702 199.835H380.785C382.064 199.835 382.793 199.396 382.971 198.52C383.142 197.644 382.483 197.206 380.994 197.206C379.288 197.206 378.191 198.082 377.702 199.835ZM389.369 192.809H391.649L391.719 194.786H394.557L394.069 197.229H391.568L390.439 202.847C390.214 203.987 390.594 204.557 391.579 204.557H392.603L392.114 207H389.602C387.555 207 386.752 205.903 387.194 203.708L389.369 192.809ZM394.441 207L397.768 190.366H400.85L399.187 198.671C400.668 196.081 402.545 194.786 404.817 194.786C407.167 194.786 408.078 196.108 407.55 198.753L405.899 207H402.816L404.468 198.718C404.662 197.756 404.204 197.275 403.095 197.275C401.63 197.275 400.164 198.567 398.698 201.149L397.523 207H394.441ZM416.356 194.786C419.83 194.786 421.323 196.004 420.834 198.439C420.346 200.874 418.461 202.091 415.181 202.091H412.122C411.796 203.735 412.703 204.557 414.844 204.557C416.465 204.557 417.992 204.053 419.427 203.045L418.938 205.488C417.659 206.496 416.054 207 414.123 207C410.082 207 408.477 204.918 409.307 200.753C410.106 196.775 412.455 194.786 416.356 194.786ZM412.576 199.835H415.658C416.938 199.835 417.667 199.396 417.845 198.52C418.016 197.644 417.356 197.206 415.867 197.206C414.161 197.206 413.064 198.082 412.576 199.835ZM421.404 207L423.847 194.786H426.581L426.15 198.671C427.531 196.081 429.012 194.786 430.594 194.786L430.07 197.392C428.535 197.392 427.065 198.644 425.662 201.149L424.487 207H421.404ZM340.711 218.809H342.991L343.061 220.786H345.899L345.411 223.229H342.91L341.782 228.847C341.557 229.987 341.937 230.557 342.922 230.557H343.945L343.457 233H340.944C338.897 233 338.094 231.903 338.536 229.708L340.711 218.809ZM349.517 226.847C349.005 229.398 349.699 230.674 351.599 230.674C353.499 230.674 354.705 229.398 355.217 226.847C355.713 224.357 355.011 223.113 353.111 223.113C351.211 223.113 350.013 224.357 349.517 226.847ZM346.423 226.893C347.253 222.744 349.645 220.67 353.6 220.67C357.555 220.67 359.118 222.744 358.288 226.893C357.458 231.034 355.066 233.105 351.111 233.105C347.171 233.105 345.609 231.034 346.423 226.893ZM362.417 220.786H365.5C364.375 222.531 363.6 224.47 363.173 226.602C362.677 229.084 362.952 230.325 363.999 230.325C365.434 230.325 366.399 229.084 366.896 226.602L368.059 220.786H371.141L369.978 226.602C369.482 229.084 369.951 230.325 371.386 230.325C372.433 230.325 373.204 229.084 373.701 226.602C374.127 224.47 374.127 222.531 373.701 220.786H376.783C377.21 222.531 377.21 224.47 376.783 226.602C375.93 230.867 373.953 233 370.851 233C369.028 233 368.012 231.879 367.803 229.638C366.733 231.879 365.287 233 363.464 233C360.362 233 359.238 230.867 360.091 226.602C360.517 224.47 361.293 222.531 362.417 220.786ZM387.543 223.555C387.078 223.368 386.302 223.275 385.216 223.275C383.239 223.275 382.002 224.528 381.506 227.033C381.048 229.305 381.428 230.441 382.646 230.441C384.15 230.441 385.538 229.378 386.81 227.254L387.543 223.555ZM388.741 233H386.007L386.287 229.859C384.953 231.953 383.371 233 381.541 233C378.687 233 377.655 231.019 378.446 227.056C379.284 222.876 381.816 220.786 386.042 220.786C387.461 220.786 389.14 220.953 391.079 221.286L388.741 233ZM391.661 233L394.104 220.786H396.837L396.407 224.671C397.787 222.081 399.268 220.786 400.85 220.786L400.327 223.392C398.791 223.392 397.322 224.644 395.918 227.149L394.743 233H391.661ZM409.854 223.555C409.388 223.368 408.613 223.275 407.527 223.275C405.55 223.275 404.313 224.528 403.816 227.033C403.359 229.305 403.739 230.441 404.956 230.441C406.461 230.441 407.849 229.378 409.121 227.254L409.854 223.555ZM411.052 233H408.318L408.597 229.859C407.263 231.953 405.681 233 403.851 233C400.998 233 399.966 231.019 400.757 227.056C401.595 222.876 404.127 220.786 408.353 220.786C408.981 220.786 409.66 220.817 410.389 220.879L411.296 216.366H414.379L411.052 233ZM414.088 232.418L414.6 229.859C415.848 230.402 417.36 230.674 419.136 230.674C420.462 230.674 421.211 230.247 421.381 229.394C421.536 228.619 421.168 228.231 420.276 228.231H418.066C415.584 228.231 414.592 226.99 415.088 224.508C415.6 221.949 417.667 220.67 421.288 220.67C422.824 220.67 424.223 220.902 425.487 221.368L424.976 223.927C423.727 223.384 422.308 223.113 420.718 223.113C419.051 223.113 418.132 223.539 417.961 224.392C417.806 225.168 418.213 225.555 419.183 225.555H421.16C423.874 225.555 424.983 226.796 424.487 229.278C423.975 231.837 421.99 233.116 418.531 233.116C416.833 233.116 415.352 232.884 414.088 232.418ZM330.103 249.555C329.638 249.368 328.862 249.275 327.776 249.275C325.799 249.275 324.562 250.528 324.066 253.033C323.608 255.305 323.988 256.441 325.206 256.441C326.71 256.441 328.098 255.378 329.37 253.254L330.103 249.555ZM331.301 259H328.567L328.847 255.859C327.513 257.953 325.931 259 324.101 259C321.247 259 320.215 257.019 321.006 253.056C321.844 248.876 324.376 246.786 328.602 246.786C330.021 246.786 331.7 246.953 333.639 247.286L331.301 259ZM334.221 259L336.663 246.786H339.397L338.92 250.904C340.432 248.159 342.324 246.786 344.597 246.786C346.946 246.786 347.858 248.108 347.33 250.753L345.678 259H342.596L344.248 250.718C344.442 249.756 343.984 249.275 342.875 249.275C341.409 249.275 339.944 250.567 338.478 253.149L337.303 259H334.221ZM360.242 242.366L359.753 244.809H356.671L357.159 242.366H360.242ZM359.358 246.786L356.915 259H353.833L356.275 246.786H359.358ZM359.835 259L362.278 246.786H365.011L364.534 250.904C366.046 248.159 367.939 246.786 370.211 246.786C372.561 246.786 373.472 248.108 372.944 250.753L371.293 259H368.21L369.862 250.718C370.056 249.756 369.598 249.275 368.489 249.275C367.024 249.275 365.558 250.567 364.092 253.149L362.917 259H359.835ZM383.297 257.488C382.087 258.496 380.746 259 379.272 259C375.395 259 373.871 256.926 374.701 252.777C375.5 248.783 377.993 246.786 382.18 246.786C383.344 246.786 384.406 246.902 385.368 247.135L384.879 249.578C383.918 249.345 382.933 249.229 381.925 249.229C379.637 249.229 378.256 250.412 377.783 252.777C377.279 255.297 378.016 256.557 379.994 256.557C381.312 256.557 382.576 256.053 383.786 255.045L383.297 257.488ZM391.556 242.366L388.229 259H385.147L388.473 242.366H391.556ZM405.049 246.786L402.607 259H399.873L400.35 254.882C398.838 257.627 396.946 259 394.673 259C392.324 259 391.413 257.678 391.94 255.033L393.592 246.786H396.674L395.022 255.068C394.829 256.03 395.286 256.511 396.395 256.511C397.861 256.511 399.326 255.22 400.792 252.637L401.967 246.786H405.049ZM405.643 258.418L406.155 255.859C407.403 256.402 408.915 256.674 410.691 256.674C412.017 256.674 412.766 256.247 412.936 255.394C413.091 254.619 412.723 254.231 411.831 254.231H409.621C407.139 254.231 406.147 252.99 406.643 250.508C407.155 247.949 409.222 246.67 412.843 246.67C414.379 246.67 415.778 246.902 417.042 247.368L416.531 249.927C415.282 249.384 413.863 249.113 412.273 249.113C410.606 249.113 409.687 249.539 409.516 250.392C409.361 251.168 409.768 251.555 410.738 251.555H412.715C415.429 251.555 416.538 252.796 416.042 255.278C415.53 257.837 413.545 259.116 410.086 259.116C408.388 259.116 406.907 258.884 405.643 258.418ZM423.87 242.366L423.382 244.809H420.299L420.788 242.366H423.87ZM422.986 246.786L420.544 259H417.461L419.904 246.786H422.986ZM424.452 246.786H427.709L428.965 255.324L433.758 246.786H437.015L429.605 259H426.674L424.452 246.786ZM443.564 246.786C447.038 246.786 448.531 248.004 448.042 250.439C447.554 252.874 445.669 254.091 442.389 254.091H439.33C439.004 255.735 439.911 256.557 442.052 256.557C443.672 256.557 445.2 256.053 446.635 255.045L446.146 257.488C444.867 258.496 443.261 259 441.33 259C437.29 259 435.685 256.918 436.515 252.753C437.313 248.775 439.663 246.786 443.564 246.786ZM439.783 251.835H442.866C444.145 251.835 444.874 251.396 445.053 250.52C445.223 249.644 444.564 249.206 443.075 249.206C441.369 249.206 440.272 250.082 439.783 251.835ZM325.031 275.555C324.566 275.368 323.79 275.275 322.705 275.275C320.727 275.275 319.49 276.528 318.994 279.033C318.536 281.305 318.916 282.441 320.134 282.441C321.638 282.441 323.027 281.378 324.298 279.254L325.031 275.555ZM326.229 285H323.496L323.775 281.859C322.441 283.953 320.859 285 319.029 285C316.175 285 315.144 283.019 315.935 279.056C316.772 274.876 319.304 272.786 323.531 272.786C324.159 272.786 324.837 272.817 325.566 272.879L326.474 268.366H329.556L326.229 285ZM335.558 268.366L335.07 270.809H331.987L332.476 268.366H335.558ZM334.674 272.786L332.231 285H329.149L331.592 272.786H334.674ZM344.853 275.555C344.387 275.368 343.612 275.275 342.526 275.275C340.549 275.275 339.312 276.528 338.815 279.033C338.358 281.305 338.738 282.441 339.955 282.441C341.46 282.441 342.848 281.378 344.12 279.254L344.853 275.555ZM346.051 285C345.461 287.947 342.984 289.42 338.618 289.42C337.113 289.42 335.818 289.226 334.732 288.839L335.221 286.396C336.33 286.784 337.633 286.977 339.129 286.977C341.425 286.977 342.704 286.318 342.968 285L343.596 281.859C342.262 283.953 340.68 285 338.85 285C335.996 285 334.965 283.019 335.756 279.056C336.594 274.876 339.126 272.786 343.352 272.786C344.771 272.786 346.45 272.953 348.389 273.286L346.051 285ZM355.38 268.366L354.891 270.809H351.809L352.297 268.366H355.38ZM354.496 272.786L352.053 285H348.97L351.413 272.786H354.496ZM357.811 270.809H360.091L360.161 272.786H362.999L362.51 275.229H360.009L358.881 280.847C358.656 281.987 359.036 282.557 360.021 282.557H361.045L360.556 285H358.043C355.996 285 355.194 283.903 355.636 281.708L357.811 270.809ZM372.584 275.555C372.119 275.368 371.343 275.275 370.257 275.275C368.28 275.275 367.043 276.528 366.547 279.033C366.089 281.305 366.469 282.441 367.687 282.441C369.191 282.441 370.579 281.378 371.851 279.254L372.584 275.555ZM373.782 285H371.048L371.328 281.859C369.994 283.953 368.412 285 366.582 285C363.728 285 362.696 283.019 363.487 279.056C364.325 274.876 366.857 272.786 371.083 272.786C372.502 272.786 374.181 272.953 376.12 273.286L373.782 285ZM383.111 268.366L379.784 285H376.702L380.028 268.366H383.111ZM390.055 285H386.775L397.163 268.366H400.478L404.363 285H401.164L400.176 280.463H394.65L396.244 277.788H399.594L398.221 271.541L390.055 285ZM411.633 272.786H415.297L414.809 275.229H411.145L409.377 284.069C408.88 286.535 407.771 288.544 406.05 290.095L403.968 288.408C405.146 287.361 405.922 285.915 406.294 284.069L408.551 272.786C409.218 269.436 411.381 267.761 415.042 267.761C416.042 267.761 416.918 267.916 417.67 268.226L417.182 270.669C416.476 270.359 415.596 270.204 414.541 270.204C412.944 270.204 411.975 271.065 411.633 272.786ZM414.437 285L416.879 272.786H419.613L419.183 276.671C420.563 274.081 422.044 272.786 423.626 272.786L423.103 275.392C421.567 275.392 420.098 276.644 418.694 279.149L417.519 285H414.437ZM429.338 268.366L428.849 270.809H425.767L426.255 268.366H429.338ZM428.454 272.786L426.011 285H422.928L425.371 272.786H428.454ZM438.015 283.488C436.806 284.496 435.464 285 433.991 285C430.113 285 428.589 282.926 429.419 278.777C430.218 274.783 432.711 272.786 436.899 272.786C438.062 272.786 439.124 272.902 440.086 273.135L439.597 275.578C438.636 275.345 437.651 275.229 436.643 275.229C434.355 275.229 432.975 276.412 432.502 278.777C431.998 281.297 432.734 282.557 434.712 282.557C436.03 282.557 437.294 282.053 438.504 281.045L438.015 283.488ZM449.566 275.555C449.101 275.368 448.325 275.275 447.24 275.275C445.262 275.275 444.025 276.528 443.529 279.033C443.071 281.305 443.451 282.441 444.669 282.441C446.173 282.441 447.561 281.378 448.833 279.254L449.566 275.555ZM450.764 285H448.031L448.31 281.859C446.976 283.953 445.394 285 443.564 285C440.71 285 439.679 283.019 440.47 279.056C441.307 274.876 443.839 272.786 448.066 272.786C449.485 272.786 451.164 272.953 453.102 273.286L450.764 285Z" fill="white"/>
<g filter="url(#filter0_d)">
<rect x="4" y="1" width="300" height="80" rx="8" fill="#FFF2F6" fill-opacity="0.75" shape-rendering="crispEdges"/>
<rect x="4.5" y="1.5" width="299" height="79" rx="7.5" stroke="#F44174" shape-rendering="crispEdges"/>
</g>
<path d="M106.106 34.4769L101.93 47.0769H99.446L96.332 37.7529L93.164 47.0769H90.662L86.486 34.4769H88.916L92.048 44.0529L95.306 34.4769H97.466L100.652 44.1069L103.874 34.4769H106.106ZM111.396 47.2029C110.424 47.2029 109.548 46.9929 108.768 46.5729C107.988 46.1529 107.376 45.5709 106.932 44.8269C106.5 44.0709 106.284 43.2189 106.284 42.2709C106.284 41.3229 106.5 40.4769 106.932 39.7329C107.376 38.9889 107.988 38.4069 108.768 37.9869C109.548 37.5669 110.424 37.3569 111.396 37.3569C112.38 37.3569 113.262 37.5669 114.042 37.9869C114.822 38.4069 115.428 38.9889 115.86 39.7329C116.304 40.4769 116.526 41.3229 116.526 42.2709C116.526 43.2189 116.304 44.0709 115.86 44.8269C115.428 45.5709 114.822 46.1529 114.042 46.5729C113.262 46.9929 112.38 47.2029 111.396 47.2029ZM111.396 45.2769C112.224 45.2769 112.908 45.0009 113.448 44.4489C113.988 43.8969 114.258 43.1709 114.258 42.2709C114.258 41.3709 113.988 40.6449 113.448 40.0929C112.908 39.5409 112.224 39.2649 111.396 39.2649C110.568 39.2649 109.884 39.5409 109.344 40.0929C108.816 40.6449 108.552 41.3709 108.552 42.2709C108.552 43.1709 108.816 43.8969 109.344 44.4489C109.884 45.0009 110.568 45.2769 111.396 45.2769ZM130.809 37.3569C132.021 37.3569 132.981 37.7109 133.689 38.4189C134.397 39.1149 134.751 40.1649 134.751 41.5689V47.0769H132.501V41.8569C132.501 41.0169 132.315 40.3869 131.943 39.9669C131.571 39.5349 131.037 39.3189 130.341 39.3189C129.585 39.3189 128.979 39.5709 128.523 40.0749C128.067 40.5669 127.839 41.2749 127.839 42.1989V47.0769H125.589V41.8569C125.589 41.0169 125.403 40.3869 125.031 39.9669C124.659 39.5349 124.125 39.3189 123.429 39.3189C122.661 39.3189 122.049 39.5649 121.593 40.0569C121.149 40.5489 120.927 41.2629 120.927 42.1989V47.0769H118.677V37.4649H120.819V38.6889C121.179 38.2569 121.629 37.9269 122.169 37.6989C122.709 37.4709 123.309 37.3569 123.969 37.3569C124.689 37.3569 125.325 37.4949 125.877 37.7709C126.441 38.0349 126.885 38.4309 127.209 38.9589C127.605 38.4549 128.115 38.0649 128.739 37.7889C129.363 37.5009 130.053 37.3569 130.809 37.3569ZM146.75 42.3249C146.75 42.4809 146.738 42.7029 146.714 42.9909H139.172C139.304 43.6989 139.646 44.2629 140.198 44.6829C140.762 45.0909 141.458 45.2949 142.286 45.2949C143.342 45.2949 144.212 44.9469 144.896 44.2509L146.102 45.6369C145.67 46.1529 145.124 46.5429 144.464 46.8069C143.804 47.0709 143.06 47.2029 142.232 47.2029C141.176 47.2029 140.246 46.9929 139.442 46.5729C138.638 46.1529 138.014 45.5709 137.57 44.8269C137.138 44.0709 136.922 43.2189 136.922 42.2709C136.922 41.3349 137.132 40.4949 137.552 39.7509C137.984 38.9949 138.578 38.4069 139.334 37.9869C140.09 37.5669 140.942 37.3569 141.89 37.3569C142.826 37.3569 143.66 37.5669 144.392 37.9869C145.136 38.3949 145.712 38.9769 146.12 39.7329C146.54 40.4769 146.75 41.3409 146.75 42.3249ZM141.89 39.1569C141.17 39.1569 140.558 39.3729 140.054 39.8049C139.562 40.2249 139.262 40.7889 139.154 41.4969H144.608C144.512 40.8009 144.218 40.2369 143.726 39.8049C143.234 39.3729 142.622 39.1569 141.89 39.1569ZM154.366 37.3569C155.578 37.3569 156.55 37.7109 157.282 38.4189C158.014 39.1269 158.38 40.1769 158.38 41.5689V47.0769H156.13V41.8569C156.13 41.0169 155.932 40.3869 155.536 39.9669C155.14 39.5349 154.576 39.3189 153.844 39.3189C153.016 39.3189 152.362 39.5709 151.882 40.0749C151.402 40.5669 151.162 41.2809 151.162 42.2169V47.0769H148.912V37.4649H151.054V38.7069C151.426 38.2629 151.894 37.9269 152.458 37.6989C153.022 37.4709 153.658 37.3569 154.366 37.3569ZM169.88 37.3569C171.296 37.3569 172.376 37.6989 173.12 38.3829C173.876 39.0549 174.254 40.0749 174.254 41.4429V47.0769H172.13V45.9069C171.854 46.3269 171.458 46.6509 170.942 46.8789C170.438 47.0949 169.826 47.2029 169.106 47.2029C168.386 47.2029 167.756 47.0829 167.216 46.8429C166.676 46.5909 166.256 46.2489 165.956 45.8169C165.668 45.3729 165.524 44.8749 165.524 44.3229C165.524 43.4589 165.842 42.7689 166.478 42.2529C167.126 41.7249 168.14 41.4609 169.52 41.4609H172.004V41.3169C172.004 40.6449 171.8 40.1289 171.392 39.7689C170.996 39.4089 170.402 39.2289 169.61 39.2289C169.07 39.2289 168.536 39.3129 168.008 39.4809C167.492 39.6489 167.054 39.8829 166.694 40.1829L165.812 38.5449C166.316 38.1609 166.922 37.8669 167.63 37.6629C168.338 37.4589 169.088 37.3569 169.88 37.3569ZM169.574 45.5649C170.138 45.5649 170.636 45.4389 171.068 45.1869C171.512 44.9229 171.824 44.5509 172.004 44.0709V42.9549H169.682C168.386 42.9549 167.738 43.3809 167.738 44.2329C167.738 44.6409 167.9 44.9649 168.224 45.2049C168.548 45.4449 168.998 45.5649 169.574 45.5649ZM182.596 37.3569C183.808 37.3569 184.78 37.7109 185.512 38.4189C186.244 39.1269 186.61 40.1769 186.61 41.5689V47.0769H184.36V41.8569C184.36 41.0169 184.162 40.3869 183.766 39.9669C183.37 39.5349 182.806 39.3189 182.074 39.3189C181.246 39.3189 180.592 39.5709 180.112 40.0749C179.632 40.5669 179.392 41.2809 179.392 42.2169V47.0769H177.142V37.4649H179.284V38.7069C179.656 38.2629 180.124 37.9269 180.688 37.6989C181.252 37.4709 181.888 37.3569 182.596 37.3569ZM198.966 33.7209V47.0769H196.806V45.8349C196.434 46.2909 195.972 46.6329 195.42 46.8609C194.88 47.0889 194.28 47.2029 193.62 47.2029C192.696 47.2029 191.862 46.9989 191.118 46.5909C190.386 46.1829 189.81 45.6069 189.39 44.8629C188.97 44.1069 188.76 43.2429 188.76 42.2709C188.76 41.2989 188.97 40.4409 189.39 39.6969C189.81 38.9529 190.386 38.3769 191.118 37.9689C191.862 37.5609 192.696 37.3569 193.62 37.3569C194.256 37.3569 194.838 37.4649 195.366 37.6809C195.894 37.8969 196.344 38.2209 196.716 38.6529V33.7209H198.966ZM193.89 45.2769C194.43 45.2769 194.916 45.1569 195.348 44.9169C195.78 44.6649 196.122 44.3109 196.374 43.8549C196.626 43.3989 196.752 42.8709 196.752 42.2709C196.752 41.6709 196.626 41.1429 196.374 40.6869C196.122 40.2309 195.78 39.8829 195.348 39.6429C194.916 39.3909 194.43 39.2649 193.89 39.2649C193.35 39.2649 192.864 39.3909 192.432 39.6429C192 39.8829 191.658 40.2309 191.406 40.6869C191.154 41.1429 191.028 41.6709 191.028 42.2709C191.028 42.8709 191.154 43.3989 191.406 43.8549C191.658 44.3109 192 44.6649 192.432 44.9169C192.864 45.1569 193.35 45.2769 193.89 45.2769ZM215.704 40.6329H217.918V45.6549C217.27 46.1709 216.514 46.5669 215.65 46.8429C214.786 47.1189 213.898 47.2569 212.986 47.2569C211.702 47.2569 210.544 46.9809 209.512 46.4289C208.48 45.8649 207.67 45.0909 207.082 44.1069C206.494 43.1229 206.2 42.0129 206.2 40.7769C206.2 39.5409 206.494 38.4309 207.082 37.4469C207.67 36.4629 208.48 35.6949 209.512 35.1429C210.556 34.5789 211.726 34.2969 213.022 34.2969C214.078 34.2969 215.038 34.4709 215.902 34.8189C216.766 35.1669 217.492 35.6769 218.08 36.3489L216.604 37.7889C215.644 36.8289 214.486 36.3489 213.13 36.3489C212.242 36.3489 211.45 36.5349 210.754 36.9069C210.07 37.2789 209.53 37.8009 209.134 38.4729C208.75 39.1449 208.558 39.9129 208.558 40.7769C208.558 41.6169 208.75 42.3729 209.134 43.0449C209.53 43.7169 210.07 44.2449 210.754 44.6289C211.45 45.0129 212.236 45.2049 213.112 45.2049C214.096 45.2049 214.96 44.9889 215.704 44.5569V40.6329ZM220.789 37.4649H223.039V47.0769H220.789V37.4649ZM221.923 35.8809C221.515 35.8809 221.173 35.7549 220.897 35.5029C220.621 35.2389 220.483 34.9149 220.483 34.5309C220.483 34.1469 220.621 33.8289 220.897 33.5769C221.173 33.3129 221.515 33.1809 221.923 33.1809C222.331 33.1809 222.673 33.3069 222.949 33.5589C223.225 33.7989 223.363 34.1049 223.363 34.4769C223.363 34.8729 223.225 35.2089 222.949 35.4849C222.685 35.7489 222.343 35.8809 221.923 35.8809ZM228.134 38.8689C228.782 37.8609 229.922 37.3569 231.554 37.3569V39.4989C231.362 39.4629 231.188 39.4449 231.032 39.4449C230.156 39.4449 229.472 39.7029 228.98 40.2189C228.488 40.7229 228.242 41.4549 228.242 42.4149V47.0769H225.992V37.4649H228.134V38.8689ZM233.462 33.7209H235.712V47.0769H233.462V33.7209ZM241.635 47.2029C240.855 47.2029 240.093 47.1009 239.349 46.8969C238.605 46.6929 238.011 46.4349 237.567 46.1229L238.431 44.4129C238.863 44.7009 239.379 44.9349 239.979 45.1149C240.591 45.2829 241.191 45.3669 241.779 45.3669C243.123 45.3669 243.795 45.0129 243.795 44.3049C243.795 43.9689 243.621 43.7349 243.273 43.6029C242.937 43.4709 242.391 43.3449 241.635 43.2249C240.843 43.1049 240.195 42.9669 239.691 42.8109C239.199 42.6549 238.767 42.3849 238.395 42.0009C238.035 41.6049 237.855 41.0589 237.855 40.3629C237.855 39.4509 238.233 38.7249 238.989 38.1849C239.757 37.6329 240.789 37.3569 242.085 37.3569C242.745 37.3569 243.405 37.4349 244.065 37.5909C244.725 37.7349 245.265 37.9329 245.685 38.1849L244.821 39.8949C244.005 39.4149 243.087 39.1749 242.067 39.1749C241.407 39.1749 240.903 39.2769 240.555 39.4809C240.219 39.6729 240.051 39.9309 240.051 40.2549C240.051 40.6149 240.231 40.8729 240.591 41.0289C240.963 41.1729 241.533 41.3109 242.301 41.4429C243.069 41.5629 243.699 41.7009 244.191 41.8569C244.683 42.0129 245.103 42.2769 245.451 42.6489C245.811 43.0209 245.991 43.5489 245.991 44.2329C245.991 45.1329 245.601 45.8529 244.821 46.3929C244.041 46.9329 242.979 47.2029 241.635 47.2029Z" fill="#000F3B"/>
<circle cx="58" cy="40.6154" r="12" fill="#F44174"/>
<rect x="351.5" y="0.5" width="299" height="79" rx="7.5" fill="#FFFFC7" fill-opacity="0.1" stroke="#FFBF46"/>
<circle cx="399" cy="38.1538" r="12" fill="#FFBF46"/>
<path d="M434.128 39.6309V44.0769H431.788V39.6669L426.838 31.4769H429.34L433.03 37.6149L436.756 31.4769H439.06L434.128 39.6309ZM443.624 44.2029C442.652 44.2029 441.776 43.9929 440.996 43.5729C440.216 43.1529 439.604 42.5709 439.16 41.8269C438.728 41.0709 438.512 40.2189 438.512 39.2709C438.512 38.3229 438.728 37.4769 439.16 36.7329C439.604 35.9889 440.216 35.4069 440.996 34.9869C441.776 34.5669 442.652 34.3569 443.624 34.3569C444.608 34.3569 445.49 34.5669 446.27 34.9869C447.05 35.4069 447.656 35.9889 448.088 36.7329C448.532 37.4769 448.754 38.3229 448.754 39.2709C448.754 40.2189 448.532 41.0709 448.088 41.8269C447.656 42.5709 447.05 43.1529 446.27 43.5729C445.49 43.9929 444.608 44.2029 443.624 44.2029ZM443.624 42.2769C444.452 42.2769 445.136 42.0009 445.676 41.4489C446.216 40.8969 446.486 40.1709 446.486 39.2709C446.486 38.3709 446.216 37.6449 445.676 37.0929C445.136 36.5409 444.452 36.2649 443.624 36.2649C442.796 36.2649 442.112 36.5409 441.572 37.0929C441.044 37.6449 440.78 38.3709 440.78 39.2709C440.78 40.1709 441.044 40.8969 441.572 41.4489C442.112 42.0009 442.796 42.2769 443.624 42.2769ZM460.212 34.4649V44.0769H458.07V42.8529C457.71 43.2849 457.26 43.6209 456.72 43.8609C456.18 44.0889 455.598 44.2029 454.974 44.2029C453.69 44.2029 452.676 43.8489 451.932 43.1409C451.2 42.4209 450.834 41.3589 450.834 39.9549V34.4649H453.084V39.6489C453.084 40.5129 453.276 41.1609 453.66 41.5929C454.056 42.0129 454.614 42.2229 455.334 42.2229C456.138 42.2229 456.774 41.9769 457.242 41.4849C457.722 40.9809 457.962 40.2609 457.962 39.3249V34.4649H460.212ZM468.936 43.5549C468.672 43.7709 468.348 43.9329 467.964 44.0409C467.592 44.1489 467.196 44.2029 466.776 44.2029C465.72 44.2029 464.904 43.9269 464.328 43.3749C463.752 42.8229 463.464 42.0189 463.464 40.9629V36.3369H461.88V34.5369H463.464V32.3409H465.714V34.5369H468.288V36.3369H465.714V40.9089C465.714 41.3769 465.828 41.7369 466.056 41.9889C466.284 42.2289 466.614 42.3489 467.046 42.3489C467.55 42.3489 467.97 42.2169 468.306 41.9529L468.936 43.5549ZM476.241 34.3569C477.453 34.3569 478.425 34.7109 479.157 35.4189C479.889 36.1269 480.255 37.1769 480.255 38.5689V44.0769H478.005V38.8569C478.005 38.0169 477.807 37.3869 477.411 36.9669C477.015 36.5349 476.451 36.3189 475.719 36.3189C474.891 36.3189 474.237 36.5709 473.757 37.0749C473.277 37.5669 473.037 38.2809 473.037 39.2169V44.0769H470.787V30.7209H473.037V35.5809C473.409 35.1849 473.865 34.8849 474.405 34.6809C474.957 34.4649 475.569 34.3569 476.241 34.3569ZM491.755 34.3569C493.171 34.3569 494.251 34.6989 494.995 35.3829C495.751 36.0549 496.129 37.0749 496.129 38.4429V44.0769H494.005V42.9069C493.729 43.3269 493.333 43.6509 492.817 43.8789C492.313 44.0949 491.701 44.2029 490.981 44.2029C490.261 44.2029 489.631 44.0829 489.091 43.8429C488.551 43.5909 488.131 43.2489 487.831 42.8169C487.543 42.3729 487.399 41.8749 487.399 41.3229C487.399 40.4589 487.717 39.7689 488.353 39.2529C489.001 38.7249 490.015 38.4609 491.395 38.4609H493.879V38.3169C493.879 37.6449 493.675 37.1289 493.267 36.7689C492.871 36.4089 492.277 36.2289 491.485 36.2289C490.945 36.2289 490.411 36.3129 489.883 36.4809C489.367 36.6489 488.929 36.8829 488.569 37.1829L487.687 35.5449C488.191 35.1609 488.797 34.8669 489.505 34.6629C490.213 34.4589 490.963 34.3569 491.755 34.3569ZM491.449 42.5649C492.013 42.5649 492.511 42.4389 492.943 42.1869C493.387 41.9229 493.699 41.5509 493.879 41.0709V39.9549H491.557C490.261 39.9549 489.613 40.3809 489.613 41.2329C489.613 41.6409 489.775 41.9649 490.099 42.2049C490.423 42.4449 490.873 42.5649 491.449 42.5649ZM504.471 34.3569C505.683 34.3569 506.655 34.7109 507.387 35.4189C508.119 36.1269 508.485 37.1769 508.485 38.5689V44.0769H506.235V38.8569C506.235 38.0169 506.037 37.3869 505.641 36.9669C505.245 36.5349 504.681 36.3189 503.949 36.3189C503.121 36.3189 502.467 36.5709 501.987 37.0749C501.507 37.5669 501.267 38.2809 501.267 39.2169V44.0769H499.017V34.4649H501.159V35.7069C501.531 35.2629 501.999 34.9269 502.563 34.6989C503.127 34.4709 503.763 34.3569 504.471 34.3569ZM520.841 30.7209V44.0769H518.681V42.8349C518.309 43.2909 517.847 43.6329 517.295 43.8609C516.755 44.0889 516.155 44.2029 515.495 44.2029C514.571 44.2029 513.737 43.9989 512.993 43.5909C512.261 43.1829 511.685 42.6069 511.265 41.8629C510.845 41.1069 510.635 40.2429 510.635 39.2709C510.635 38.2989 510.845 37.4409 511.265 36.6969C511.685 35.9529 512.261 35.3769 512.993 34.9689C513.737 34.5609 514.571 34.3569 515.495 34.3569C516.131 34.3569 516.713 34.4649 517.241 34.6809C517.769 34.8969 518.219 35.2209 518.591 35.6529V30.7209H520.841ZM515.765 42.2769C516.305 42.2769 516.791 42.1569 517.223 41.9169C517.655 41.6649 517.997 41.3109 518.249 40.8549C518.501 40.3989 518.627 39.8709 518.627 39.2709C518.627 38.6709 518.501 38.1429 518.249 37.6869C517.997 37.2309 517.655 36.8829 517.223 36.6429C516.791 36.3909 516.305 36.2649 515.765 36.2649C515.225 36.2649 514.739 36.3909 514.307 36.6429C513.875 36.8829 513.533 37.2309 513.281 37.6869C513.029 38.1429 512.903 38.6709 512.903 39.2709C512.903 39.8709 513.029 40.3989 513.281 40.8549C513.533 41.3109 513.875 41.6649 514.307 41.9169C514.739 42.1569 515.225 42.2769 515.765 42.2769ZM534.807 44.2569C533.535 44.2569 532.383 43.9809 531.351 43.4289C530.331 42.8649 529.527 42.0909 528.939 41.1069C528.363 40.1229 528.075 39.0129 528.075 37.7769C528.075 36.5409 528.369 35.4309 528.957 34.4469C529.545 33.4629 530.349 32.6949 531.369 32.1429C532.401 31.5789 533.553 31.2969 534.825 31.2969C535.857 31.2969 536.799 31.4769 537.651 31.8369C538.503 32.1969 539.223 32.7189 539.811 33.4029L538.299 34.8249C537.387 33.8409 536.265 33.3489 534.933 33.3489C534.069 33.3489 533.295 33.5409 532.611 33.9249C531.927 34.2969 531.393 34.8189 531.009 35.4909C530.625 36.1629 530.433 36.9249 530.433 37.7769C530.433 38.6289 530.625 39.3909 531.009 40.0629C531.393 40.7349 531.927 41.2629 532.611 41.6469C533.295 42.0189 534.069 42.2049 534.933 42.2049C536.265 42.2049 537.387 41.7069 538.299 40.7109L539.811 42.1509C539.223 42.8349 538.497 43.3569 537.633 43.7169C536.781 44.0769 535.839 44.2569 534.807 44.2569ZM547.291 34.3569C548.503 34.3569 549.475 34.7109 550.207 35.4189C550.939 36.1269 551.305 37.1769 551.305 38.5689V44.0769H549.055V38.8569C549.055 38.0169 548.857 37.3869 548.461 36.9669C548.065 36.5349 547.501 36.3189 546.769 36.3189C545.941 36.3189 545.287 36.5709 544.807 37.0749C544.327 37.5669 544.087 38.2809 544.087 39.2169V44.0769H541.837V30.7209H544.087V35.5809C544.459 35.1849 544.915 34.8849 545.455 34.6809C546.007 34.4649 546.619 34.3569 547.291 34.3569ZM554.16 34.4649H556.41V44.0769H554.16V34.4649ZM555.294 32.8809C554.886 32.8809 554.544 32.7549 554.268 32.5029C553.992 32.2389 553.854 31.9149 553.854 31.5309C553.854 31.1469 553.992 30.8289 554.268 30.5769C554.544 30.3129 554.886 30.1809 555.294 30.1809C555.702 30.1809 556.044 30.3069 556.32 30.5589C556.596 30.7989 556.734 31.1049 556.734 31.4769C556.734 31.8729 556.596 32.2089 556.32 32.4849C556.056 32.7489 555.714 32.8809 555.294 32.8809ZM559.363 30.7209H561.613V44.0769H559.363V30.7209ZM573.98 30.7209V44.0769H571.82V42.8349C571.448 43.2909 570.986 43.6329 570.434 43.8609C569.894 44.0889 569.294 44.2029 568.634 44.2029C567.71 44.2029 566.876 43.9989 566.132 43.5909C565.4 43.1829 564.824 42.6069 564.404 41.8629C563.984 41.1069 563.774 40.2429 563.774 39.2709C563.774 38.2989 563.984 37.4409 564.404 36.6969C564.824 35.9529 565.4 35.3769 566.132 34.9689C566.876 34.5609 567.71 34.3569 568.634 34.3569C569.27 34.3569 569.852 34.4649 570.38 34.6809C570.908 34.8969 571.358 35.2209 571.73 35.6529V30.7209H573.98ZM568.904 42.2769C569.444 42.2769 569.93 42.1569 570.362 41.9169C570.794 41.6649 571.136 41.3109 571.388 40.8549C571.64 40.3989 571.766 39.8709 571.766 39.2709C571.766 38.6709 571.64 38.1429 571.388 37.6869C571.136 37.2309 570.794 36.8829 570.362 36.6429C569.93 36.3909 569.444 36.2649 568.904 36.2649C568.364 36.2649 567.878 36.3909 567.446 36.6429C567.014 36.8829 566.672 37.2309 566.42 37.6869C566.168 38.1429 566.042 38.6709 566.042 39.2709C566.042 39.8709 566.168 40.3989 566.42 40.8549C566.672 41.3109 567.014 41.6649 567.446 41.9169C567.878 42.1569 568.364 42.2769 568.904 42.2769ZM579.065 35.8689C579.713 34.8609 580.853 34.3569 582.485 34.3569V36.4989C582.293 36.4629 582.119 36.4449 581.963 36.4449C581.087 36.4449 580.403 36.7029 579.911 37.2189C579.419 37.7229 579.173 38.4549 579.173 39.4149V44.0769H576.923V34.4649H579.065V35.8689ZM593.342 39.3249C593.342 39.4809 593.33 39.7029 593.306 39.9909H585.764C585.896 40.6989 586.238 41.2629 586.79 41.6829C587.354 42.0909 588.05 42.2949 588.878 42.2949C589.934 42.2949 590.804 41.9469 591.488 41.2509L592.694 42.6369C592.262 43.1529 591.716 43.5429 591.056 43.8069C590.396 44.0709 589.652 44.2029 588.824 44.2029C587.768 44.2029 586.838 43.9929 586.034 43.5729C585.23 43.1529 584.606 42.5709 584.162 41.8269C583.73 41.0709 583.514 40.2189 583.514 39.2709C583.514 38.3349 583.724 37.4949 584.144 36.7509C584.576 35.9949 585.17 35.4069 585.926 34.9869C586.682 34.5669 587.534 34.3569 588.482 34.3569C589.418 34.3569 590.252 34.5669 590.984 34.9869C591.728 35.3949 592.304 35.9769 592.712 36.7329C593.132 37.4769 593.342 38.3409 593.342 39.3249ZM588.482 36.1569C587.762 36.1569 587.15 36.3729 586.646 36.8049C586.154 37.2249 585.854 37.7889 585.746 38.4969H591.2C591.104 37.8009 590.81 37.2369 590.318 36.8049C589.826 36.3729 589.214 36.1569 588.482 36.1569ZM600.957 34.3569C602.169 34.3569 603.141 34.7109 603.873 35.4189C604.605 36.1269 604.971 37.1769 604.971 38.5689V44.0769H602.721V38.8569C602.721 38.0169 602.523 37.3869 602.127 36.9669C601.731 36.5349 601.167 36.3189 600.435 36.3189C599.607 36.3189 598.953 36.5709 598.473 37.0749C597.993 37.5669 597.753 38.2809 597.753 39.2169V44.0769H595.503V34.4649H597.645V35.7069C598.017 35.2629 598.485 34.9269 599.049 34.6989C599.613 34.4709 600.249 34.3569 600.957 34.3569Z" fill="#000F3B"/>
<g filter="url(#filter1_d)">
<rect x="351.5" y="389.5" width="299" height="79" rx="7.5" fill="#FFFFC7" fill-opacity="0.2" stroke="#1EAE98"/>
<circle cx="375" cy="423.692" r="12" fill="#1EAE98"/>
<path d="M417.876 409.169C418.968 409.169 419.916 409.349 420.72 409.709C421.536 410.069 422.16 410.585 422.592 411.257C423.024 411.929 423.24 412.727 423.24 413.651C423.24 414.563 423.024 415.361 422.592 416.045C422.16 416.717 421.536 417.233 420.72 417.593C419.916 417.953 418.968 418.133 417.876 418.133H415.032V421.769H412.692V409.169H417.876ZM417.768 416.153C418.788 416.153 419.562 415.937 420.09 415.505C420.618 415.073 420.882 414.455 420.882 413.651C420.882 412.847 420.618 412.229 420.09 411.797C419.562 411.365 418.788 411.149 417.768 411.149H415.032V416.153H417.768ZM434.362 417.017C434.362 417.173 434.35 417.395 434.326 417.683H426.784C426.916 418.391 427.258 418.955 427.81 419.375C428.374 419.783 429.07 419.987 429.898 419.987C430.954 419.987 431.824 419.639 432.508 418.943L433.714 420.329C433.282 420.845 432.736 421.235 432.076 421.499C431.416 421.763 430.672 421.895 429.844 421.895C428.788 421.895 427.858 421.685 427.054 421.265C426.25 420.845 425.626 420.263 425.182 419.519C424.75 418.763 424.534 417.911 424.534 416.963C424.534 416.027 424.744 415.187 425.164 414.443C425.596 413.687 426.19 413.099 426.946 412.679C427.702 412.259 428.554 412.049 429.502 412.049C430.438 412.049 431.272 412.259 432.004 412.679C432.748 413.087 433.324 413.669 433.732 414.425C434.152 415.169 434.362 416.033 434.362 417.017ZM429.502 413.849C428.782 413.849 428.17 414.065 427.666 414.497C427.174 414.917 426.874 415.481 426.766 416.189H432.22C432.124 415.493 431.83 414.929 431.338 414.497C430.846 414.065 430.234 413.849 429.502 413.849ZM438.665 413.561C439.313 412.553 440.453 412.049 442.085 412.049V414.191C441.893 414.155 441.719 414.137 441.563 414.137C440.687 414.137 440.003 414.395 439.511 414.911C439.019 415.415 438.773 416.147 438.773 417.107V421.769H436.523V412.157H438.665V413.561ZM446.999 421.895C446.219 421.895 445.457 421.793 444.713 421.589C443.969 421.385 443.375 421.127 442.931 420.815L443.795 419.105C444.227 419.393 444.743 419.627 445.343 419.807C445.955 419.975 446.555 420.059 447.143 420.059C448.487 420.059 449.159 419.705 449.159 418.997C449.159 418.661 448.985 418.427 448.637 418.295C448.301 418.163 447.755 418.037 446.999 417.917C446.207 417.797 445.559 417.659 445.055 417.503C444.563 417.347 444.131 417.077 443.759 416.693C443.399 416.297 443.219 415.751 443.219 415.055C443.219 414.143 443.597 413.417 444.353 412.877C445.121 412.325 446.153 412.049 447.449 412.049C448.109 412.049 448.769 412.127 449.429 412.283C450.089 412.427 450.629 412.625 451.049 412.877L450.185 414.587C449.369 414.107 448.451 413.867 447.431 413.867C446.771 413.867 446.267 413.969 445.919 414.173C445.583 414.365 445.415 414.623 445.415 414.947C445.415 415.307 445.595 415.565 445.955 415.721C446.327 415.865 446.897 416.003 447.665 416.135C448.433 416.255 449.063 416.393 449.555 416.549C450.047 416.705 450.467 416.969 450.815 417.341C451.175 417.713 451.355 418.241 451.355 418.925C451.355 419.825 450.965 420.545 450.185 421.085C449.405 421.625 448.343 421.895 446.999 421.895ZM457.612 421.895C456.64 421.895 455.764 421.685 454.984 421.265C454.204 420.845 453.592 420.263 453.148 419.519C452.716 418.763 452.5 417.911 452.5 416.963C452.5 416.015 452.716 415.169 453.148 414.425C453.592 413.681 454.204 413.099 454.984 412.679C455.764 412.259 456.64 412.049 457.612 412.049C458.596 412.049 459.478 412.259 460.258 412.679C461.038 413.099 461.644 413.681 462.076 414.425C462.52 415.169 462.742 416.015 462.742 416.963C462.742 417.911 462.52 418.763 462.076 419.519C461.644 420.263 461.038 420.845 460.258 421.265C459.478 421.685 458.596 421.895 457.612 421.895ZM457.612 419.969C458.44 419.969 459.124 419.693 459.664 419.141C460.204 418.589 460.474 417.863 460.474 416.963C460.474 416.063 460.204 415.337 459.664 414.785C459.124 414.233 458.44 413.957 457.612 413.957C456.784 413.957 456.1 414.233 455.56 414.785C455.032 415.337 454.768 416.063 454.768 416.963C454.768 417.863 455.032 418.589 455.56 419.141C456.1 419.693 456.784 419.969 457.612 419.969ZM470.348 412.049C471.56 412.049 472.532 412.403 473.264 413.111C473.996 413.819 474.362 414.869 474.362 416.261V421.769H472.112V416.549C472.112 415.709 471.914 415.079 471.518 414.659C471.122 414.227 470.558 414.011 469.826 414.011C468.998 414.011 468.344 414.263 467.864 414.767C467.384 415.259 467.144 415.973 467.144 416.909V421.769H464.894V412.157H467.036V413.399C467.408 412.955 467.876 412.619 468.44 412.391C469.004 412.163 469.64 412.049 470.348 412.049ZM480.186 421.895C479.406 421.895 478.644 421.793 477.9 421.589C477.156 421.385 476.562 421.127 476.118 420.815L476.982 419.105C477.414 419.393 477.93 419.627 478.53 419.807C479.142 419.975 479.742 420.059 480.33 420.059C481.674 420.059 482.346 419.705 482.346 418.997C482.346 418.661 482.172 418.427 481.824 418.295C481.488 418.163 480.942 418.037 480.186 417.917C479.394 417.797 478.746 417.659 478.242 417.503C477.75 417.347 477.318 417.077 476.946 416.693C476.586 416.297 476.406 415.751 476.406 415.055C476.406 414.143 476.784 413.417 477.54 412.877C478.308 412.325 479.34 412.049 480.636 412.049C481.296 412.049 481.956 412.127 482.616 412.283C483.276 412.427 483.816 412.625 484.236 412.877L483.372 414.587C482.556 414.107 481.638 413.867 480.618 413.867C479.958 413.867 479.454 413.969 479.106 414.173C478.77 414.365 478.602 414.623 478.602 414.947C478.602 415.307 478.782 415.565 479.142 415.721C479.514 415.865 480.084 416.003 480.852 416.135C481.62 416.255 482.25 416.393 482.742 416.549C483.234 416.705 483.654 416.969 484.002 417.341C484.362 417.713 484.542 418.241 484.542 418.925C484.542 419.825 484.152 420.545 483.372 421.085C482.592 421.625 481.53 421.895 480.186 421.895ZM506.449 412.157L502.903 421.769H500.743L498.259 415.145L495.739 421.769H493.579L490.051 412.157H492.175L494.713 419.249L497.359 412.157H499.249L501.841 419.285L504.451 412.157H506.449ZM507.996 412.157H510.246V421.769H507.996V412.157ZM509.13 410.573C508.722 410.573 508.38 410.447 508.104 410.195C507.828 409.931 507.69 409.607 507.69 409.223C507.69 408.839 507.828 408.521 508.104 408.269C508.38 408.005 508.722 407.873 509.13 407.873C509.538 407.873 509.88 407.999 510.156 408.251C510.432 408.491 510.57 408.797 510.57 409.169C510.57 409.565 510.432 409.901 510.156 410.177C509.892 410.441 509.55 410.573 509.13 410.573ZM518.977 421.247C518.713 421.463 518.389 421.625 518.005 421.733C517.633 421.841 517.237 421.895 516.817 421.895C515.761 421.895 514.945 421.619 514.369 421.067C513.793 420.515 513.505 419.711 513.505 418.655V414.029H511.921V412.229H513.505V410.033H515.755V412.229H518.329V414.029H515.755V418.601C515.755 419.069 515.869 419.429 516.097 419.681C516.325 419.921 516.655 420.041 517.087 420.041C517.591 420.041 518.011 419.909 518.347 419.645L518.977 421.247ZM526.282 412.049C527.494 412.049 528.466 412.403 529.198 413.111C529.93 413.819 530.296 414.869 530.296 416.261V421.769H528.046V416.549C528.046 415.709 527.848 415.079 527.452 414.659C527.056 414.227 526.492 414.011 525.76 414.011C524.932 414.011 524.278 414.263 523.798 414.767C523.318 415.259 523.078 415.973 523.078 416.909V421.769H520.828V408.413H523.078V413.273C523.45 412.877 523.906 412.577 524.446 412.373C524.998 412.157 525.61 412.049 526.282 412.049ZM538.34 409.169H543.848C545.192 409.169 546.386 409.433 547.43 409.961C548.474 410.477 549.284 411.215 549.86 412.175C550.436 413.123 550.724 414.221 550.724 415.469C550.724 416.717 550.436 417.821 549.86 418.781C549.284 419.729 548.474 420.467 547.43 420.995C546.386 421.511 545.192 421.769 543.848 421.769H538.34V409.169ZM543.74 419.789C544.664 419.789 545.474 419.615 546.17 419.267C546.878 418.907 547.418 418.403 547.79 417.755C548.174 417.095 548.366 416.333 548.366 415.469C548.366 414.605 548.174 413.849 547.79 413.201C547.418 412.541 546.878 412.037 546.17 411.689C545.474 411.329 544.664 411.149 543.74 411.149H540.68V419.789H543.74ZM552.996 412.157H555.246V421.769H552.996V412.157ZM554.13 410.573C553.722 410.573 553.38 410.447 553.104 410.195C552.828 409.931 552.69 409.607 552.69 409.223C552.69 408.839 552.828 408.521 553.104 408.269C553.38 408.005 553.722 407.873 554.13 407.873C554.538 407.873 554.88 407.999 555.156 408.251C555.432 408.491 555.57 408.797 555.57 409.169C555.57 409.565 555.432 409.901 555.156 410.177C554.892 410.441 554.55 410.573 554.13 410.573ZM561.169 421.895C560.389 421.895 559.627 421.793 558.883 421.589C558.139 421.385 557.545 421.127 557.101 420.815L557.965 419.105C558.397 419.393 558.913 419.627 559.513 419.807C560.125 419.975 560.725 420.059 561.313 420.059C562.657 420.059 563.329 419.705 563.329 418.997C563.329 418.661 563.155 418.427 562.807 418.295C562.471 418.163 561.925 418.037 561.169 417.917C560.377 417.797 559.729 417.659 559.225 417.503C558.733 417.347 558.301 417.077 557.929 416.693C557.569 416.297 557.389 415.751 557.389 415.055C557.389 414.143 557.767 413.417 558.523 412.877C559.291 412.325 560.323 412.049 561.619 412.049C562.279 412.049 562.939 412.127 563.599 412.283C564.259 412.427 564.799 412.625 565.219 412.877L564.355 414.587C563.539 414.107 562.621 413.867 561.601 413.867C560.941 413.867 560.437 413.969 560.089 414.173C559.753 414.365 559.585 414.623 559.585 414.947C559.585 415.307 559.765 415.565 560.125 415.721C560.497 415.865 561.067 416.003 561.835 416.135C562.603 416.255 563.233 416.393 563.725 416.549C564.217 416.705 564.637 416.969 564.985 417.341C565.345 417.713 565.525 418.241 565.525 418.925C565.525 419.825 565.135 420.545 564.355 421.085C563.575 421.625 562.513 421.895 561.169 421.895ZM571.134 412.049C572.55 412.049 573.63 412.391 574.374 413.075C575.13 413.747 575.508 414.767 575.508 416.135V421.769H573.384V420.599C573.108 421.019 572.712 421.343 572.196 421.571C571.692 421.787 571.08 421.895 570.36 421.895C569.64 421.895 569.01 421.775 568.47 421.535C567.93 421.283 567.51 420.941 567.21 420.509C566.922 420.065 566.778 419.567 566.778 419.015C566.778 418.151 567.096 417.461 567.732 416.945C568.38 416.417 569.394 416.153 570.774 416.153H573.258V416.009C573.258 415.337 573.054 414.821 572.646 414.461C572.25 414.101 571.656 413.921 570.864 413.921C570.324 413.921 569.79 414.005 569.262 414.173C568.746 414.341 568.308 414.575 567.948 414.875L567.066 413.237C567.57 412.853 568.176 412.559 568.884 412.355C569.592 412.151 570.342 412.049 571.134 412.049ZM570.828 420.257C571.392 420.257 571.89 420.131 572.322 419.879C572.766 419.615 573.078 419.243 573.258 418.763V417.647H570.936C569.64 417.647 568.992 418.073 568.992 418.925C568.992 419.333 569.154 419.657 569.478 419.897C569.802 420.137 570.252 420.257 570.828 420.257ZM583.724 412.049C584.66 412.049 585.494 412.253 586.226 412.661C586.97 413.069 587.552 413.645 587.972 414.389C588.392 415.133 588.602 415.991 588.602 416.963C588.602 417.935 588.392 418.799 587.972 419.555C587.552 420.299 586.97 420.875 586.226 421.283C585.494 421.691 584.66 421.895 583.724 421.895C583.064 421.895 582.458 421.781 581.906 421.553C581.366 421.325 580.91 420.983 580.538 420.527V421.769H578.396V408.413H580.646V413.327C581.03 412.907 581.48 412.589 581.996 412.373C582.524 412.157 583.1 412.049 583.724 412.049ZM583.472 419.969C584.3 419.969 584.978 419.693 585.506 419.141C586.046 418.589 586.316 417.863 586.316 416.963C586.316 416.063 586.046 415.337 585.506 414.785C584.978 414.233 584.3 413.957 583.472 413.957C582.932 413.957 582.446 414.083 582.014 414.335C581.582 414.575 581.24 414.923 580.988 415.379C580.736 415.835 580.61 416.363 580.61 416.963C580.61 417.563 580.736 418.091 580.988 418.547C581.24 419.003 581.582 419.357 582.014 419.609C582.446 419.849 582.932 419.969 583.472 419.969ZM590.736 412.157H592.986V421.769H590.736V412.157ZM591.87 410.573C591.462 410.573 591.12 410.447 590.844 410.195C590.568 409.931 590.43 409.607 590.43 409.223C590.43 408.839 590.568 408.521 590.844 408.269C591.12 408.005 591.462 407.873 591.87 407.873C592.278 407.873 592.62 407.999 592.896 408.251C593.172 408.491 593.31 408.797 593.31 409.169C593.31 409.565 593.172 409.901 592.896 410.177C592.632 410.441 592.29 410.573 591.87 410.573ZM595.939 408.413H598.189V421.769H595.939V408.413ZM601.142 412.157H603.392V421.769H601.142V412.157ZM602.276 410.573C601.868 410.573 601.526 410.447 601.25 410.195C600.974 409.931 600.836 409.607 600.836 409.223C600.836 408.839 600.974 408.521 601.25 408.269C601.526 408.005 601.868 407.873 602.276 407.873C602.684 407.873 603.026 407.999 603.302 408.251C603.578 408.491 603.716 408.797 603.716 409.169C603.716 409.565 603.578 409.901 603.302 410.177C603.038 410.441 602.696 410.573 602.276 410.573ZM612.123 421.247C611.859 421.463 611.535 421.625 611.151 421.733C610.779 421.841 610.383 421.895 609.963 421.895C608.907 421.895 608.091 421.619 607.515 421.067C606.939 420.515 606.651 419.711 606.651 418.655V414.029H605.067V412.229H606.651V410.033H608.901V412.229H611.475V414.029H608.901V418.601C608.901 419.069 609.015 419.429 609.243 419.681C609.471 419.921 609.801 420.041 610.233 420.041C610.737 420.041 611.157 419.909 611.493 419.645L612.123 421.247ZM613.974 412.157H616.224V421.769H613.974V412.157ZM615.108 410.573C614.7 410.573 614.358 410.447 614.082 410.195C613.806 409.931 613.668 409.607 613.668 409.223C613.668 408.839 613.806 408.521 614.082 408.269C614.358 408.005 614.7 407.873 615.108 407.873C615.516 407.873 615.858 407.999 616.134 408.251C616.41 408.491 616.548 408.797 616.548 409.169C616.548 409.565 616.41 409.901 616.134 410.177C615.87 410.441 615.528 410.573 615.108 410.573ZM628.213 417.017C628.213 417.173 628.201 417.395 628.177 417.683H620.635C620.767 418.391 621.109 418.955 621.661 419.375C622.225 419.783 622.921 419.987 623.749 419.987C624.805 419.987 625.675 419.639 626.359 418.943L627.565 420.329C627.133 420.845 626.587 421.235 625.927 421.499C625.267 421.763 624.523 421.895 623.695 421.895C622.639 421.895 621.709 421.685 620.905 421.265C620.101 420.845 619.477 420.263 619.033 419.519C618.601 418.763 618.385 417.911 618.385 416.963C618.385 416.027 618.595 415.187 619.015 414.443C619.447 413.687 620.041 413.099 620.797 412.679C621.553 412.259 622.405 412.049 623.353 412.049C624.289 412.049 625.123 412.259 625.855 412.679C626.599 413.087 627.175 413.669 627.583 414.425C628.003 415.169 628.213 416.033 628.213 417.017ZM623.353 413.849C622.633 413.849 622.021 414.065 621.517 414.497C621.025 414.917 620.725 415.481 620.617 416.189H626.071C625.975 415.493 625.681 414.929 625.189 414.497C624.697 414.065 624.085 413.849 623.353 413.849ZM633.344 421.895C632.564 421.895 631.802 421.793 631.058 421.589C630.314 421.385 629.72 421.127 629.276 420.815L630.14 419.105C630.572 419.393 631.088 419.627 631.688 419.807C632.3 419.975 632.9 420.059 633.488 420.059C634.832 420.059 635.504 419.705 635.504 418.997C635.504 418.661 635.33 418.427 634.982 418.295C634.646 418.163 634.1 418.037 633.344 417.917C632.552 417.797 631.904 417.659 631.4 417.503C630.908 417.347 630.476 417.077 630.104 416.693C629.744 416.297 629.564 415.751 629.564 415.055C629.564 414.143 629.942 413.417 630.698 412.877C631.466 412.325 632.498 412.049 633.794 412.049C634.454 412.049 635.114 412.127 635.774 412.283C636.434 412.427 636.974 412.625 637.394 412.877L636.53 414.587C635.714 414.107 634.796 413.867 633.776 413.867C633.116 413.867 632.612 413.969 632.264 414.173C631.928 414.365 631.76 414.623 631.76 414.947C631.76 415.307 631.94 415.565 632.3 415.721C632.672 415.865 633.242 416.003 634.01 416.135C634.778 416.255 635.408 416.393 635.9 416.549C636.392 416.705 636.812 416.969 637.16 417.341C637.52 417.713 637.7 418.241 637.7 418.925C637.7 419.825 637.31 420.545 636.53 421.085C635.75 421.625 634.688 421.895 633.344 421.895ZM416.148 442.049C417.564 442.049 418.644 442.391 419.388 443.075C420.144 443.747 420.522 444.767 420.522 446.135V451.769H418.398V450.599C418.122 451.019 417.726 451.343 417.21 451.571C416.706 451.787 416.094 451.895 415.374 451.895C414.654 451.895 414.024 451.775 413.484 451.535C412.944 451.283 412.524 450.941 412.224 450.509C411.936 450.065 411.792 449.567 411.792 449.015C411.792 448.151 412.11 447.461 412.746 446.945C413.394 446.417 414.408 446.153 415.788 446.153H418.272V446.009C418.272 445.337 418.068 444.821 417.66 444.461C417.264 444.101 416.67 443.921 415.878 443.921C415.338 443.921 414.804 444.005 414.276 444.173C413.76 444.341 413.322 444.575 412.962 444.875L412.08 443.237C412.584 442.853 413.19 442.559 413.898 442.355C414.606 442.151 415.356 442.049 416.148 442.049ZM415.842 450.257C416.406 450.257 416.904 450.131 417.336 449.879C417.78 449.615 418.092 449.243 418.272 448.763V447.647H415.95C414.654 447.647 414.006 448.073 414.006 448.925C414.006 449.333 414.168 449.657 414.492 449.897C414.816 450.137 415.266 450.257 415.842 450.257ZM428.864 442.049C430.076 442.049 431.048 442.403 431.78 443.111C432.512 443.819 432.878 444.869 432.878 446.261V451.769H430.628V446.549C430.628 445.709 430.43 445.079 430.034 444.659C429.638 444.227 429.074 444.011 428.342 444.011C427.514 444.011 426.86 444.263 426.38 444.767C425.9 445.259 425.66 445.973 425.66 446.909V451.769H423.41V442.157H425.552V443.399C425.924 442.955 426.392 442.619 426.956 442.391C427.52 442.163 428.156 442.049 428.864 442.049ZM445.234 438.413V451.769H443.074V450.527C442.702 450.983 442.24 451.325 441.688 451.553C441.148 451.781 440.548 451.895 439.888 451.895C438.964 451.895 438.13 451.691 437.386 451.283C436.654 450.875 436.078 450.299 435.658 449.555C435.238 448.799 435.028 447.935 435.028 446.963C435.028 445.991 435.238 445.133 435.658 444.389C436.078 443.645 436.654 443.069 437.386 442.661C438.13 442.253 438.964 442.049 439.888 442.049C440.524 442.049 441.106 442.157 441.634 442.373C442.162 442.589 442.612 442.913 442.984 443.345V438.413H445.234ZM440.158 449.969C440.698 449.969 441.184 449.849 441.616 449.609C442.048 449.357 442.39 449.003 442.642 448.547C442.894 448.091 443.02 447.563 443.02 446.963C443.02 446.363 442.894 445.835 442.642 445.379C442.39 444.923 442.048 444.575 441.616 444.335C441.184 444.083 440.698 443.957 440.158 443.957C439.618 443.957 439.132 444.083 438.7 444.335C438.268 444.575 437.926 444.923 437.674 445.379C437.422 445.835 437.296 446.363 437.296 446.963C437.296 447.563 437.422 448.091 437.674 448.547C437.926 449.003 438.268 449.357 438.7 449.609C439.132 449.849 439.618 449.969 440.158 449.969ZM457.472 451.895C456.5 451.895 455.624 451.685 454.844 451.265C454.064 450.845 453.452 450.263 453.008 449.519C452.576 448.763 452.36 447.911 452.36 446.963C452.36 446.015 452.576 445.169 453.008 444.425C453.452 443.681 454.064 443.099 454.844 442.679C455.624 442.259 456.5 442.049 457.472 442.049C458.456 442.049 459.338 442.259 460.118 442.679C460.898 443.099 461.504 443.681 461.936 444.425C462.38 445.169 462.602 446.015 462.602 446.963C462.602 447.911 462.38 448.763 461.936 449.519C461.504 450.263 460.898 450.845 460.118 451.265C459.338 451.685 458.456 451.895 457.472 451.895ZM457.472 449.969C458.3 449.969 458.984 449.693 459.524 449.141C460.064 448.589 460.334 447.863 460.334 446.963C460.334 446.063 460.064 445.337 459.524 444.785C458.984 444.233 458.3 443.957 457.472 443.957C456.644 443.957 455.96 444.233 455.42 444.785C454.892 445.337 454.628 446.063 454.628 446.963C454.628 447.863 454.892 448.589 455.42 449.141C455.96 449.693 456.644 449.969 457.472 449.969ZM464.753 438.413H467.003V451.769H464.753V438.413ZM479.37 438.413V451.769H477.21V450.527C476.838 450.983 476.376 451.325 475.824 451.553C475.284 451.781 474.684 451.895 474.024 451.895C473.1 451.895 472.266 451.691 471.522 451.283C470.79 450.875 470.214 450.299 469.794 449.555C469.374 448.799 469.164 447.935 469.164 446.963C469.164 445.991 469.374 445.133 469.794 444.389C470.214 443.645 470.79 443.069 471.522 442.661C472.266 442.253 473.1 442.049 474.024 442.049C474.66 442.049 475.242 442.157 475.77 442.373C476.298 442.589 476.748 442.913 477.12 443.345V438.413H479.37ZM474.294 449.969C474.834 449.969 475.32 449.849 475.752 449.609C476.184 449.357 476.526 449.003 476.778 448.547C477.03 448.091 477.156 447.563 477.156 446.963C477.156 446.363 477.03 445.835 476.778 445.379C476.526 444.923 476.184 444.575 475.752 444.335C475.32 444.083 474.834 443.957 474.294 443.957C473.754 443.957 473.268 444.083 472.836 444.335C472.404 444.575 472.062 444.923 471.81 445.379C471.558 445.835 471.432 446.363 471.432 446.963C471.432 447.563 471.558 448.091 471.81 448.547C472.062 449.003 472.404 449.357 472.836 449.609C473.268 449.849 473.754 449.969 474.294 449.969ZM491.35 447.017C491.35 447.173 491.338 447.395 491.314 447.683H483.772C483.904 448.391 484.246 448.955 484.798 449.375C485.362 449.783 486.058 449.987 486.886 449.987C487.942 449.987 488.812 449.639 489.496 448.943L490.702 450.329C490.27 450.845 489.724 451.235 489.064 451.499C488.404 451.763 487.66 451.895 486.832 451.895C485.776 451.895 484.846 451.685 484.042 451.265C483.238 450.845 482.614 450.263 482.17 449.519C481.738 448.763 481.522 447.911 481.522 446.963C481.522 446.027 481.732 445.187 482.152 444.443C482.584 443.687 483.178 443.099 483.934 442.679C484.69 442.259 485.542 442.049 486.49 442.049C487.426 442.049 488.26 442.259 488.992 442.679C489.736 443.087 490.312 443.669 490.72 444.425C491.14 445.169 491.35 446.033 491.35 447.017ZM486.49 443.849C485.77 443.849 485.158 444.065 484.654 444.497C484.162 444.917 483.862 445.481 483.754 446.189H489.208C489.112 445.493 488.818 444.929 488.326 444.497C487.834 444.065 487.222 443.849 486.49 443.849ZM495.653 443.561C496.301 442.553 497.441 442.049 499.073 442.049V444.191C498.881 444.155 498.707 444.137 498.551 444.137C497.675 444.137 496.991 444.395 496.499 444.911C496.007 445.415 495.761 446.147 495.761 447.107V451.769H493.511V442.157H495.653V443.561ZM511.372 442.049C512.308 442.049 513.142 442.253 513.874 442.661C514.618 443.069 515.2 443.645 515.62 444.389C516.04 445.133 516.25 445.991 516.25 446.963C516.25 447.935 516.04 448.799 515.62 449.555C515.2 450.299 514.618 450.875 513.874 451.283C513.142 451.691 512.308 451.895 511.372 451.895C510.076 451.895 509.05 451.463 508.294 450.599V455.261H506.044V442.157H508.186V443.417C508.558 442.961 509.014 442.619 509.554 442.391C510.106 442.163 510.712 442.049 511.372 442.049ZM511.12 449.969C511.948 449.969 512.626 449.693 513.154 449.141C513.694 448.589 513.964 447.863 513.964 446.963C513.964 446.063 513.694 445.337 513.154 444.785C512.626 444.233 511.948 443.957 511.12 443.957C510.58 443.957 510.094 444.083 509.662 444.335C509.23 444.575 508.888 444.923 508.636 445.379C508.384 445.835 508.258 446.363 508.258 446.963C508.258 447.563 508.384 448.091 508.636 448.547C508.888 449.003 509.23 449.357 509.662 449.609C510.094 449.849 510.58 449.969 511.12 449.969ZM527.42 447.017C527.42 447.173 527.408 447.395 527.384 447.683H519.842C519.974 448.391 520.316 448.955 520.868 449.375C521.432 449.783 522.128 449.987 522.956 449.987C524.012 449.987 524.882 449.639 525.566 448.943L526.772 450.329C526.34 450.845 525.794 451.235 525.134 451.499C524.474 451.763 523.73 451.895 522.902 451.895C521.846 451.895 520.916 451.685 520.112 451.265C519.308 450.845 518.684 450.263 518.24 449.519C517.808 448.763 517.592 447.911 517.592 446.963C517.592 446.027 517.802 445.187 518.222 444.443C518.654 443.687 519.248 443.099 520.004 442.679C520.76 442.259 521.612 442.049 522.56 442.049C523.496 442.049 524.33 442.259 525.062 442.679C525.806 443.087 526.382 443.669 526.79 444.425C527.21 445.169 527.42 446.033 527.42 447.017ZM522.56 443.849C521.84 443.849 521.228 444.065 520.724 444.497C520.232 444.917 519.932 445.481 519.824 446.189H525.278C525.182 445.493 524.888 444.929 524.396 444.497C523.904 444.065 523.292 443.849 522.56 443.849ZM531.723 443.561C532.371 442.553 533.511 442.049 535.143 442.049V444.191C534.951 444.155 534.777 444.137 534.621 444.137C533.745 444.137 533.061 444.395 532.569 444.911C532.077 445.415 531.831 446.147 531.831 447.107V451.769H529.581V442.157H531.723V443.561ZM540.057 451.895C539.277 451.895 538.515 451.793 537.771 451.589C537.027 451.385 536.433 451.127 535.989 450.815L536.853 449.105C537.285 449.393 537.801 449.627 538.401 449.807C539.013 449.975 539.613 450.059 540.201 450.059C541.545 450.059 542.217 449.705 542.217 448.997C542.217 448.661 542.043 448.427 541.695 448.295C541.359 448.163 540.813 448.037 540.057 447.917C539.265 447.797 538.617 447.659 538.113 447.503C537.621 447.347 537.189 447.077 536.817 446.693C536.457 446.297 536.277 445.751 536.277 445.055C536.277 444.143 536.655 443.417 537.411 442.877C538.179 442.325 539.211 442.049 540.507 442.049C541.167 442.049 541.827 442.127 542.487 442.283C543.147 442.427 543.687 442.625 544.107 442.877L543.243 444.587C542.427 444.107 541.509 443.867 540.489 443.867C539.829 443.867 539.325 443.969 538.977 444.173C538.641 444.365 538.473 444.623 538.473 444.947C538.473 445.307 538.653 445.565 539.013 445.721C539.385 445.865 539.955 446.003 540.723 446.135C541.491 446.255 542.121 446.393 542.613 446.549C543.105 446.705 543.525 446.969 543.873 447.341C544.233 447.713 544.413 448.241 544.413 448.925C544.413 449.825 544.023 450.545 543.243 451.085C542.463 451.625 541.401 451.895 540.057 451.895ZM550.671 451.895C549.699 451.895 548.823 451.685 548.043 451.265C547.263 450.845 546.651 450.263 546.207 449.519C545.775 448.763 545.559 447.911 545.559 446.963C545.559 446.015 545.775 445.169 546.207 444.425C546.651 443.681 547.263 443.099 548.043 442.679C548.823 442.259 549.699 442.049 550.671 442.049C551.655 442.049 552.537 442.259 553.317 442.679C554.097 443.099 554.703 443.681 555.135 444.425C555.579 445.169 555.801 446.015 555.801 446.963C555.801 447.911 555.579 448.763 555.135 449.519C554.703 450.263 554.097 450.845 553.317 451.265C552.537 451.685 551.655 451.895 550.671 451.895ZM550.671 449.969C551.499 449.969 552.183 449.693 552.723 449.141C553.263 448.589 553.533 447.863 553.533 446.963C553.533 446.063 553.263 445.337 552.723 444.785C552.183 444.233 551.499 443.957 550.671 443.957C549.843 443.957 549.159 444.233 548.619 444.785C548.091 445.337 547.827 446.063 547.827 446.963C547.827 447.863 548.091 448.589 548.619 449.141C549.159 449.693 549.843 449.969 550.671 449.969ZM563.407 442.049C564.619 442.049 565.591 442.403 566.323 443.111C567.055 443.819 567.421 444.869 567.421 446.261V451.769H565.171V446.549C565.171 445.709 564.973 445.079 564.577 444.659C564.181 444.227 563.617 444.011 562.885 444.011C562.057 444.011 561.403 444.263 560.923 444.767C560.443 445.259 560.203 445.973 560.203 446.909V451.769H557.953V442.157H560.095V443.399C560.467 442.955 560.935 442.619 561.499 442.391C562.063 442.163 562.699 442.049 563.407 442.049ZM573.245 451.895C572.465 451.895 571.703 451.793 570.959 451.589C570.215 451.385 569.621 451.127 569.177 450.815L570.041 449.105C570.473 449.393 570.989 449.627 571.589 449.807C572.201 449.975 572.801 450.059 573.389 450.059C574.733 450.059 575.405 449.705 575.405 448.997C575.405 448.661 575.231 448.427 574.883 448.295C574.547 448.163 574.001 448.037 573.245 447.917C572.453 447.797 571.805 447.659 571.301 447.503C570.809 447.347 570.377 447.077 570.005 446.693C569.645 446.297 569.465 445.751 569.465 445.055C569.465 444.143 569.843 443.417 570.599 442.877C571.367 442.325 572.399 442.049 573.695 442.049C574.355 442.049 575.015 442.127 575.675 442.283C576.335 442.427 576.875 442.625 577.295 442.877L576.431 444.587C575.615 444.107 574.697 443.867 573.677 443.867C573.017 443.867 572.513 443.969 572.165 444.173C571.829 444.365 571.661 444.623 571.661 444.947C571.661 445.307 571.841 445.565 572.201 445.721C572.573 445.865 573.143 446.003 573.911 446.135C574.679 446.255 575.309 446.393 575.801 446.549C576.293 446.705 576.713 446.969 577.061 447.341C577.421 447.713 577.601 448.241 577.601 448.925C577.601 449.825 577.211 450.545 576.431 451.085C575.651 451.625 574.589 451.895 573.245 451.895Z" fill="#000F3B"/>
</g>
<rect x="15.5" y="387.5" width="299" height="79" rx="7.5" fill="#7693E6" fill-opacity="0.2" stroke="#233E8B"/>
<circle cx="37" cy="427.846" r="12" fill="#233E8B"/>
<path d="M66.876 420.938C67.968 420.938 68.916 421.118 69.72 421.478C70.536 421.838 71.16 422.354 71.592 423.026C72.024 423.698 72.24 424.496 72.24 425.42C72.24 426.332 72.024 427.13 71.592 427.814C71.16 428.486 70.536 429.002 69.72 429.362C68.916 429.722 67.968 429.902 66.876 429.902H64.032V433.538H61.692V420.938H66.876ZM66.768 427.922C67.788 427.922 68.562 427.706 69.09 427.274C69.618 426.842 69.882 426.224 69.882 425.42C69.882 424.616 69.618 423.998 69.09 423.566C68.562 423.134 67.788 422.918 66.768 422.918H64.032V427.922H66.768ZM83.3616 428.786C83.3616 428.942 83.3496 429.164 83.3256 429.452H75.7836C75.9156 430.16 76.2576 430.724 76.8096 431.144C77.3736 431.552 78.0696 431.756 78.8976 431.756C79.9536 431.756 80.8236 431.408 81.5076 430.712L82.7136 432.098C82.2816 432.614 81.7356 433.004 81.0756 433.268C80.4156 433.532 79.6716 433.664 78.8436 433.664C77.7876 433.664 76.8576 433.454 76.0536 433.034C75.2496 432.614 74.6256 432.032 74.1816 431.288C73.7496 430.532 73.5336 429.68 73.5336 428.732C73.5336 427.796 73.7436 426.956 74.1636 426.212C74.5956 425.456 75.1896 424.868 75.9456 424.448C76.7016 424.028 77.5536 423.818 78.5016 423.818C79.4376 423.818 80.2716 424.028 81.0036 424.448C81.7476 424.856 82.3236 425.438 82.7316 426.194C83.1516 426.938 83.3616 427.802 83.3616 428.786ZM78.5016 425.618C77.7816 425.618 77.1696 425.834 76.6656 426.266C76.1736 426.686 75.8736 427.25 75.7656 427.958H81.2196C81.1236 427.262 80.8296 426.698 80.3376 426.266C79.8456 425.834 79.2336 425.618 78.5016 425.618ZM89.8429 433.664C88.8709 433.664 87.9949 433.454 87.2149 433.034C86.4349 432.614 85.8229 432.032 85.3789 431.288C84.9469 430.532 84.7309 429.68 84.7309 428.732C84.7309 427.784 84.9469 426.938 85.3789 426.194C85.8229 425.45 86.4349 424.868 87.2149 424.448C87.9949 424.028 88.8709 423.818 89.8429 423.818C90.8269 423.818 91.7089 424.028 92.4889 424.448C93.2689 424.868 93.8749 425.45 94.3069 426.194C94.7509 426.938 94.9729 427.784 94.9729 428.732C94.9729 429.68 94.7509 430.532 94.3069 431.288C93.8749 432.032 93.2689 432.614 92.4889 433.034C91.7089 433.454 90.8269 433.664 89.8429 433.664ZM89.8429 431.738C90.6709 431.738 91.3549 431.462 91.8949 430.91C92.4349 430.358 92.7049 429.632 92.7049 428.732C92.7049 427.832 92.4349 427.106 91.8949 426.554C91.3549 426.002 90.6709 425.726 89.8429 425.726C89.0149 425.726 88.3309 426.002 87.7909 426.554C87.2629 427.106 86.9989 427.832 86.9989 428.732C86.9989 429.632 87.2629 430.358 87.7909 430.91C88.3309 431.462 89.0149 431.738 89.8429 431.738ZM102.452 423.818C103.388 423.818 104.222 424.022 104.954 424.43C105.698 424.838 106.28 425.414 106.7 426.158C107.12 426.902 107.33 427.76 107.33 428.732C107.33 429.704 107.12 430.568 106.7 431.324C106.28 432.068 105.698 432.644 104.954 433.052C104.222 433.46 103.388 433.664 102.452 433.664C101.156 433.664 100.13 433.232 99.3744 432.368V437.03H97.1244V423.926H99.2664V425.186C99.6384 424.73 100.094 424.388 100.634 424.16C101.186 423.932 101.792 423.818 102.452 423.818ZM102.2 431.738C103.028 431.738 103.706 431.462 104.234 430.91C104.774 430.358 105.044 429.632 105.044 428.732C105.044 427.832 104.774 427.106 104.234 426.554C103.706 426.002 103.028 425.726 102.2 425.726C101.66 425.726 101.174 425.852 100.742 426.104C100.31 426.344 99.9684 426.692 99.7164 427.148C99.4644 427.604 99.3384 428.132 99.3384 428.732C99.3384 429.332 99.4644 429.86 99.7164 430.316C99.9684 430.772 100.31 431.126 100.742 431.378C101.174 431.618 101.66 431.738 102.2 431.738ZM109.464 420.182H111.714V433.538H109.464V420.182ZM123.703 428.786C123.703 428.942 123.691 429.164 123.667 429.452H116.125C116.257 430.16 116.599 430.724 117.151 431.144C117.715 431.552 118.411 431.756 119.239 431.756C120.295 431.756 121.165 431.408 121.849 430.712L123.055 432.098C122.623 432.614 122.077 433.004 121.417 433.268C120.757 433.532 120.013 433.664 119.185 433.664C118.129 433.664 117.199 433.454 116.395 433.034C115.591 432.614 114.967 432.032 114.523 431.288C114.091 430.532 113.875 429.68 113.875 428.732C113.875 427.796 114.085 426.956 114.505 426.212C114.937 425.456 115.531 424.868 116.287 424.448C117.043 424.028 117.895 423.818 118.843 423.818C119.779 423.818 120.613 424.028 121.345 424.448C122.089 424.856 122.665 425.438 123.073 426.194C123.493 426.938 123.703 427.802 123.703 428.786ZM118.843 425.618C118.123 425.618 117.511 425.834 117.007 426.266C116.515 426.686 116.215 427.25 116.107 427.958H121.561C121.465 427.262 121.171 426.698 120.679 426.266C120.187 425.834 119.575 425.618 118.843 425.618ZM130.839 420.182H133.089V433.538H130.839V420.182ZM136.042 423.926H138.292V433.538H136.042V423.926ZM137.176 422.342C136.768 422.342 136.426 422.216 136.15 421.964C135.874 421.7 135.736 421.376 135.736 420.992C135.736 420.608 135.874 420.29 136.15 420.038C136.426 419.774 136.768 419.642 137.176 419.642C137.584 419.642 137.926 419.768 138.202 420.02C138.478 420.26 138.616 420.566 138.616 420.938C138.616 421.334 138.478 421.67 138.202 421.946C137.938 422.21 137.596 422.342 137.176 422.342ZM150.246 423.926L146.124 433.538H143.802L139.68 423.926H142.02L145.008 431.054L148.086 423.926H150.246ZM151.652 423.926H153.902V433.538H151.652V423.926ZM152.786 422.342C152.378 422.342 152.036 422.216 151.76 421.964C151.484 421.7 151.346 421.376 151.346 420.992C151.346 420.608 151.484 420.29 151.76 420.038C152.036 419.774 152.378 419.642 152.786 419.642C153.194 419.642 153.536 419.768 153.812 420.02C154.088 420.26 154.226 420.566 154.226 420.938C154.226 421.334 154.088 421.67 153.812 421.946C153.548 422.21 153.206 422.342 152.786 422.342ZM162.309 423.818C163.521 423.818 164.493 424.172 165.225 424.88C165.957 425.588 166.323 426.638 166.323 428.03V433.538H164.073V428.318C164.073 427.478 163.875 426.848 163.479 426.428C163.083 425.996 162.519 425.78 161.787 425.78C160.959 425.78 160.305 426.032 159.825 426.536C159.345 427.028 159.105 427.742 159.105 428.678V433.538H156.855V423.926H158.997V425.168C159.369 424.724 159.837 424.388 160.401 424.16C160.965 423.932 161.601 423.818 162.309 423.818ZM178.805 423.926V432.08C178.805 435.464 177.077 437.156 173.621 437.156C172.697 437.156 171.821 437.036 170.993 436.796C170.165 436.568 169.481 436.232 168.941 435.788L169.949 434.096C170.369 434.444 170.897 434.72 171.533 434.924C172.181 435.14 172.835 435.248 173.495 435.248C174.551 435.248 175.325 435.008 175.817 434.528C176.309 434.048 176.555 433.316 176.555 432.332V431.828C176.171 432.248 175.703 432.566 175.151 432.782C174.599 432.998 173.993 433.106 173.333 433.106C172.421 433.106 171.593 432.914 170.849 432.53C170.117 432.134 169.535 431.582 169.103 430.874C168.683 430.166 168.473 429.356 168.473 428.444C168.473 427.532 168.683 426.728 169.103 426.032C169.535 425.324 170.117 424.778 170.849 424.394C171.593 424.01 172.421 423.818 173.333 423.818C174.029 423.818 174.659 423.932 175.223 424.16C175.799 424.388 176.279 424.736 176.663 425.204V423.926H178.805ZM173.675 431.198C174.527 431.198 175.223 430.946 175.763 430.442C176.315 429.926 176.591 429.26 176.591 428.444C176.591 427.64 176.315 426.986 175.763 426.482C175.223 425.978 174.527 425.726 173.675 425.726C172.811 425.726 172.103 425.978 171.551 426.482C171.011 426.986 170.741 427.64 170.741 428.444C170.741 429.26 171.011 429.926 171.551 430.442C172.103 430.946 172.811 431.198 173.675 431.198ZM186.738 423.926H188.988V433.538H186.738V423.926ZM187.872 422.342C187.464 422.342 187.122 422.216 186.846 421.964C186.57 421.7 186.432 421.376 186.432 420.992C186.432 420.608 186.57 420.29 186.846 420.038C187.122 419.774 187.464 419.642 187.872 419.642C188.28 419.642 188.622 419.768 188.898 420.02C189.174 420.26 189.312 420.566 189.312 420.938C189.312 421.334 189.174 421.67 188.898 421.946C188.634 422.21 188.292 422.342 187.872 422.342ZM197.395 423.818C198.607 423.818 199.579 424.172 200.311 424.88C201.043 425.588 201.409 426.638 201.409 428.03V433.538H199.159V428.318C199.159 427.478 198.961 426.848 198.565 426.428C198.169 425.996 197.605 425.78 196.873 425.78C196.045 425.78 195.391 426.032 194.911 426.536C194.431 427.028 194.191 427.742 194.191 428.678V433.538H191.941V423.926H194.083V425.168C194.455 424.724 194.923 424.388 195.487 424.16C196.051 423.932 196.687 423.818 197.395 423.818ZM211.38 425.33C212.028 424.322 213.168 423.818 214.8 423.818V425.96C214.608 425.924 214.434 425.906 214.278 425.906C213.402 425.906 212.718 426.164 212.226 426.68C211.734 427.184 211.488 427.916 211.488 428.876V433.538H209.238V423.926H211.38V425.33ZM226.102 423.926V433.538H223.96V432.314C223.6 432.746 223.15 433.082 222.61 433.322C222.07 433.55 221.488 433.664 220.864 433.664C219.58 433.664 218.566 433.31 217.822 432.602C217.09 431.882 216.724 430.82 216.724 429.416V423.926H218.974V429.11C218.974 429.974 219.166 430.622 219.55 431.054C219.946 431.474 220.504 431.684 221.224 431.684C222.028 431.684 222.664 431.438 223.132 430.946C223.612 430.442 223.852 429.722 223.852 428.786V423.926H226.102ZM231.19 425.33C231.838 424.322 232.978 423.818 234.61 423.818V425.96C234.418 425.924 234.244 425.906 234.088 425.906C233.212 425.906 232.528 426.164 232.036 426.68C231.544 427.184 231.298 427.916 231.298 428.876V433.538H229.048V423.926H231.19V425.33ZM240.138 423.818C241.554 423.818 242.634 424.16 243.378 424.844C244.134 425.516 244.512 426.536 244.512 427.904V433.538H242.388V432.368C242.112 432.788 241.716 433.112 241.2 433.34C240.696 433.556 240.084 433.664 239.364 433.664C238.644 433.664 238.014 433.544 237.474 433.304C236.934 433.052 236.514 432.71 236.214 432.278C235.926 431.834 235.782 431.336 235.782 430.784C235.782 429.92 236.1 429.23 236.736 428.714C237.384 428.186 238.398 427.922 239.778 427.922H242.262V427.778C242.262 427.106 242.058 426.59 241.65 426.23C241.254 425.87 240.66 425.69 239.868 425.69C239.328 425.69 238.794 425.774 238.266 425.942C237.75 426.11 237.312 426.344 236.952 426.644L236.07 425.006C236.574 424.622 237.18 424.328 237.888 424.124C238.596 423.92 239.346 423.818 240.138 423.818ZM239.832 432.026C240.396 432.026 240.894 431.9 241.326 431.648C241.77 431.384 242.082 431.012 242.262 430.532V429.416H239.94C238.644 429.416 237.996 429.842 237.996 430.694C237.996 431.102 238.158 431.426 238.482 431.666C238.806 431.906 239.256 432.026 239.832 432.026ZM247.4 420.182H249.65V433.538H247.4V420.182ZM261.25 423.818C262.666 423.818 263.746 424.16 264.49 424.844C265.246 425.516 265.624 426.536 265.624 427.904V433.538H263.5V432.368C263.224 432.788 262.828 433.112 262.312 433.34C261.808 433.556 261.196 433.664 260.476 433.664C259.756 433.664 259.126 433.544 258.586 433.304C258.046 433.052 257.626 432.71 257.326 432.278C257.038 431.834 256.894 431.336 256.894 430.784C256.894 429.92 257.212 429.23 257.848 428.714C258.496 428.186 259.51 427.922 260.89 427.922H263.374V427.778C263.374 427.106 263.17 426.59 262.762 426.23C262.366 425.87 261.772 425.69 260.98 425.69C260.44 425.69 259.906 425.774 259.378 425.942C258.862 426.11 258.424 426.344 258.064 426.644L257.182 425.006C257.686 424.622 258.292 424.328 259 424.124C259.708 423.92 260.458 423.818 261.25 423.818ZM260.944 432.026C261.508 432.026 262.006 431.9 262.438 431.648C262.882 431.384 263.194 431.012 263.374 430.532V429.416H261.052C259.756 429.416 259.108 429.842 259.108 430.694C259.108 431.102 259.27 431.426 259.594 431.666C259.918 431.906 260.368 432.026 260.944 432.026ZM270.653 425.33C271.301 424.322 272.441 423.818 274.073 423.818V425.96C273.881 425.924 273.707 425.906 273.551 425.906C272.675 425.906 271.991 426.164 271.499 426.68C271.007 427.184 270.761 427.916 270.761 428.876V433.538H268.511V423.926H270.653V425.33ZM284.93 428.786C284.93 428.942 284.918 429.164 284.894 429.452H277.352C277.484 430.16 277.826 430.724 278.378 431.144C278.942 431.552 279.638 431.756 280.466 431.756C281.522 431.756 282.392 431.408 283.076 430.712L284.282 432.098C283.85 432.614 283.304 433.004 282.644 433.268C281.984 433.532 281.24 433.664 280.412 433.664C279.356 433.664 278.426 433.454 277.622 433.034C276.818 432.614 276.194 432.032 275.75 431.288C275.318 430.532 275.102 429.68 275.102 428.732C275.102 427.796 275.312 426.956 275.732 426.212C276.164 425.456 276.758 424.868 277.514 424.448C278.27 424.028 279.122 423.818 280.07 423.818C281.006 423.818 281.84 424.028 282.572 424.448C283.316 424.856 283.892 425.438 284.3 426.194C284.72 426.938 284.93 427.802 284.93 428.786ZM280.07 425.618C279.35 425.618 278.738 425.834 278.234 426.266C277.742 426.686 277.442 427.25 277.334 427.958H282.788C282.692 427.262 282.398 426.698 281.906 426.266C281.414 425.834 280.802 425.618 280.07 425.618ZM290.5 423.818C291.916 423.818 292.996 424.16 293.74 424.844C294.496 425.516 294.874 426.536 294.874 427.904V433.538H292.75V432.368C292.474 432.788 292.078 433.112 291.562 433.34C291.058 433.556 290.446 433.664 289.726 433.664C289.006 433.664 288.376 433.544 287.836 433.304C287.296 433.052 286.876 432.71 286.576 432.278C286.288 431.834 286.144 431.336 286.144 430.784C286.144 429.92 286.462 429.23 287.098 428.714C287.746 428.186 288.76 427.922 290.14 427.922H292.624V427.778C292.624 427.106 292.42 426.59 292.012 426.23C291.616 425.87 291.022 425.69 290.23 425.69C289.69 425.69 289.156 425.774 288.628 425.942C288.112 426.11 287.674 426.344 287.314 426.644L286.432 425.006C286.936 424.622 287.542 424.328 288.25 424.124C288.958 423.92 289.708 423.818 290.5 423.818ZM290.194 432.026C290.758 432.026 291.256 431.9 291.688 431.648C292.132 431.384 292.444 431.012 292.624 430.532V429.416H290.302C289.006 429.416 288.358 429.842 288.358 430.694C288.358 431.102 288.52 431.426 288.844 431.666C289.168 431.906 289.618 432.026 290.194 432.026ZM300.731 433.664C299.951 433.664 299.189 433.562 298.445 433.358C297.701 433.154 297.107 432.896 296.663 432.584L297.527 430.874C297.959 431.162 298.475 431.396 299.075 431.576C299.687 431.744 300.287 431.828 300.875 431.828C302.219 431.828 302.891 431.474 302.891 430.766C302.891 430.43 302.717 430.196 302.369 430.064C302.033 429.932 301.487 429.806 300.731 429.686C299.939 429.566 299.291 429.428 298.787 429.272C298.295 429.116 297.863 428.846 297.491 428.462C297.131 428.066 296.951 427.52 296.951 426.824C296.951 425.912 297.329 425.186 298.085 424.646C298.853 424.094 299.885 423.818 301.181 423.818C301.841 423.818 302.501 423.896 303.161 424.052C303.821 424.196 304.361 424.394 304.781 424.646L303.917 426.356C303.101 425.876 302.183 425.636 301.163 425.636C300.503 425.636 299.999 425.738 299.651 425.942C299.315 426.134 299.147 426.392 299.147 426.716C299.147 427.076 299.327 427.334 299.687 427.49C300.059 427.634 300.629 427.772 301.397 427.904C302.165 428.024 302.795 428.162 303.287 428.318C303.779 428.474 304.199 428.738 304.547 429.11C304.907 429.482 305.087 430.01 305.087 430.694C305.087 431.594 304.697 432.314 303.917 432.854C303.137 433.394 302.075 433.664 300.731 433.664Z" fill="#000F3B"/>
<defs>
<filter id="filter0_d" x="0" y="1" width="308" height="88" filterUnits="userSpaceOnUse" color-interpolation-filters="sRGB">
<feFlood flood-opacity="0" result="BackgroundImageFix"/>
<feColorMatrix in="SourceAlpha" type="matrix" values="0 0 0 0 0 0 0 0 0 0 0 0 0 0 0 0 0 0 127 0" result="hardAlpha"/>
<feOffset dy="4"/>
<feGaussianBlur stdDeviation="2"/>
<feComposite in2="hardAlpha" operator="out"/>
<feColorMatrix type="matrix" values="0 0 0 0 0.662745 0 0 0 0 0.945098 0 0 0 0 0.87451 0 0 0 0.25 0"/>
<feBlend mode="normal" in2="BackgroundImageFix" result="effect1_dropShadow"/>
<feBlend mode="normal" in="SourceGraphic" in2="effect1_dropShadow" result="shape"/>
</filter>
<filter id="filter1_d" x="347" y="389" width="308" height="88" filterUnits="userSpaceOnUse" color-interpolation-filters="sRGB">
<feFlood flood-opacity="0" result="BackgroundImageFix"/>
<feColorMatrix in="SourceAlpha" type="matrix" values="0 0 0 0 0 0 0 0 0 0 0 0 0 0 0 0 0 0 127 0" result="hardAlpha"/>
<feOffset dy="4"/>
<feGaussianBlur stdDeviation="2"/>
<feComposite in2="hardAlpha" operator="out"/>
<feColorMatrix type="matrix" values="0 0 0 0 1 0 0 0 0 1 0 0 0 0 0.780392 0 0 0 0.25 0"/>
<feBlend mode="normal" in2="BackgroundImageFix" result="effect1_dropShadow"/>
<feBlend mode="normal" in="SourceGraphic" in2="effect1_dropShadow" result="shape"/>
</filter>
</defs>
</svg>
