<svg width="24" height="24" viewBox="0 0 24 24" fill="none" xmlns="http://www.w3.org/2000/svg">
<path d="M13.875 17.9998H10.125C9.50156 17.9998 9 17.4982 9 16.8748V8.99978H4.88906C4.05469 8.99978 3.6375 7.99197 4.22812 7.40134L11.3578 0.266968C11.7094 -0.0845947 12.2859 -0.0845947 12.6375 0.266968L19.7719 7.40134C20.3625 7.99197 19.9453 8.99978 19.1109 8.99978H15V16.8748C15 17.4982 14.4984 17.9998 13.875 17.9998ZM24 17.6248V22.8748C24 23.4982 23.4984 23.9998 22.875 23.9998H1.125C0.501562 23.9998 0 23.4982 0 22.8748V17.6248C0 17.0013 0.501562 16.4998 1.125 16.4998H7.5V16.8748C7.5 18.3232 8.67656 19.4998 10.125 19.4998H13.875C15.3234 19.4998 16.5 18.3232 16.5 16.8748V16.4998H22.875C23.4984 16.4998 24 17.0013 24 17.6248ZM18.1875 21.7498C18.1875 21.2342 17.7656 20.8123 17.25 20.8123C16.7344 20.8123 16.3125 21.2342 16.3125 21.7498C16.3125 22.2654 16.7344 22.6873 17.25 22.6873C17.7656 22.6873 18.1875 22.2654 18.1875 21.7498ZM21.1875 21.7498C21.1875 21.2342 20.7656 20.8123 20.25 20.8123C19.7344 20.8123 19.3125 21.2342 19.3125 21.7498C19.3125 22.2654 19.7344 22.6873 20.25 22.6873C20.7656 22.6873 21.1875 22.2654 21.1875 21.7498Z" fill="#000F3B"/>
</svg>
